<svg width="138" height="103" viewBox="0 0 138 103" fill="none" xmlns="http://www.w3.org/2000/svg">
<path d="M59.4059 73.5066C59.4059 55.8106 48.0489 45.8282 34.5078 45.8282C30.5765 45.8282 27.5189 46.7357 24.4612 48.5507C24.898 33.1234 36.6919 19.9647 51.9801 15.881V0C21.4036 4.53744 0 30.8546 0 63.978C0 88.4802 13.1042 103 30.5765 103C47.6121 103 59.4059 90.7489 59.4059 73.5066ZM137.158 73.5066C137.158 55.8106 125.801 45.8282 112.696 45.8282C108.328 45.8282 105.271 46.7357 102.213 48.5507C102.65 33.1234 114.444 19.9647 129.732 15.881V0C99.1554 4.53744 77.7518 30.8546 77.7518 63.978C77.7518 88.4802 90.856 103 108.328 103C125.801 103 137.158 90.7489 137.158 73.5066Z" fill="#4A103E" fill-opacity="0.1"/>
</svg>
