<svg width="450" height="469" viewBox="0 0 450 469" fill="none" xmlns="http://www.w3.org/2000/svg">
<g opacity="0.05">
<path d="M216.382 2.97638C211.246 6.97107 207.965 16.2445 207.109 29.0845C205.968 44.7779 207.109 45.7766 225.228 45.7766C237.354 45.7766 239.352 45.3486 241.634 42.7806C247.198 36.7886 243.061 11.9644 235.214 4.26039C230.221 -0.875641 221.804 -1.44631 216.382 2.97638Z" fill="#B25367"/>
<path d="M201.26 54.4801C193.841 56.6201 191.986 65.1802 197.693 71.6002C200.261 74.5962 220.948 76.3082 237.64 75.0242C253.048 73.7402 257.613 70.6015 256.044 62.3268C254.475 54.3375 249.767 52.9108 225.656 53.0534C214.813 53.0534 203.828 53.7668 201.26 54.4801Z" fill="#B25367"/>
<path d="M183.141 78.5903C181.572 79.161 178.433 81.729 176.15 84.1543C170.443 90.1463 169.159 102.416 173.725 106.981C178.005 111.261 184.996 110.833 191.844 105.84C198.834 100.989 201.973 96.281 203.685 88.7197L204.969 82.8703L199.405 81.4436C196.409 80.5876 193.556 79.3036 193.128 78.5903C192.129 76.8783 187.136 76.8783 183.141 78.5903Z" fill="#B25367"/>
<path d="M255.188 79.3029C253.19 80.4443 250.48 81.3003 248.91 81.443C246.628 81.443 246.342 82.1563 247.198 87.435C248.482 95.4244 252.477 101.702 259.468 106.267C270.31 113.4 280.297 109.548 280.012 98.2777C279.869 90.2883 276.445 83.8683 270.453 80.1589C264.746 76.7349 260.181 76.4496 255.188 79.3029Z" fill="#B25367"/>
<path d="M213.243 84.5836C208.393 100.848 208.821 106.126 215.954 113.545C221.376 119.394 227.082 120.108 232.932 115.542C240.636 109.55 242.49 101.704 239.209 89.2916L237.497 82.8716H225.656C217.381 82.8716 213.529 83.4422 213.243 84.5836Z" fill="#B25367"/>
<path d="M81.1335 85.7239C76.4255 86.8652 69.7201 92.9999 66.0107 99.42C64.5841 101.988 64.0134 101.988 57.4507 100.133C41.6146 95.5679 33.7679 96.4239 25.9212 103.272C18.7878 109.549 16.6478 115.256 18.2171 123.531C20.2145 134.088 25.7785 139.938 35.6226 141.935C40.4733 142.934 41.4719 145.502 39.4746 151.779C37.0492 159.768 39.1893 166.902 46.0373 173.464C55.8814 182.88 70.0054 185.306 84.4148 179.884C95.6856 175.604 98.2536 172.751 98.2536 164.048C98.2536 157.058 98.1109 156.772 94.6869 157.628C92.8322 158.056 87.4109 158.912 82.7028 159.34C74.9988 160.196 74.2855 160.054 73.2868 157.2C72.8588 155.631 71.2894 154.204 69.8628 154.204C61.8734 154.204 49.7467 138.654 51.744 130.807C54.1693 121.248 67.5801 112.973 77.7095 114.971C81.5615 115.684 85.2709 118.252 91.5482 124.529C99.6803 132.519 100.394 132.947 105.244 132.091C116.943 129.951 130.496 121.961 125.36 120.249C121.794 118.965 115.374 111.261 111.094 102.987C106.243 93.4279 100.394 87.5786 93.8309 85.7239C88.4095 84.1545 88.1242 84.1545 81.1335 85.7239Z" fill="#B25367"/>
<path d="M351.346 89.4328C345.639 93.1422 342.928 96.4235 335.795 109.121C333.655 112.83 330.088 117.11 327.806 118.394C325.523 119.678 323.668 121.105 323.668 121.676C323.668 123.53 333.227 128.381 341.93 130.806L350.918 133.374L358.336 125.385C368.751 114.114 375.171 112.117 386.442 116.54C394.574 119.821 398.426 126.526 397.427 136.085C396.857 142.22 396.001 144.074 391.578 148.069C388.725 150.78 384.587 153.205 382.305 153.633C379.737 154.204 377.882 155.631 377.311 157.485C376.741 160.053 375.884 160.196 369.036 159.483C364.756 158.912 359.335 158.056 356.767 157.628C352.202 156.772 352.202 156.772 352.202 162.193C352.202 170.753 353.486 173.464 358.336 176.032C377.026 185.876 395.573 184.592 405.417 172.893C409.269 168.185 412.55 158.912 411.551 155.488C408.413 145.644 410.41 141.364 417.829 141.364C425.39 141.364 433.522 129.522 433.522 118.537C433.522 112.83 427.53 103.842 421.395 100.418C414.547 96.5662 406.415 96.2809 395.573 99.4196L387.869 101.702L380.307 93.7129C372.888 85.8661 372.603 85.7235 364.899 85.7235C358.907 85.7235 355.768 86.5795 351.346 89.4328Z" fill="#B25367"/>
<path d="M151.611 109.122C149.186 110.12 143.764 115.114 139.484 119.965C130.211 130.665 123.934 134.374 108.954 138.511C96.1134 142.078 88.4094 145.645 85.2707 149.354C83.416 151.637 83.5587 151.779 86.8401 150.781C88.8374 150.21 95.9708 149.354 102.676 148.926C114.66 148.213 115.374 148.355 136.488 155.489C163.31 164.762 169.159 165.475 188.277 161.623C200.689 159.198 207.394 158.77 229.508 159.055C247.056 159.341 257.328 160.197 260.181 161.338C262.749 162.479 270.31 163.193 278.728 163.335C292.424 163.335 293.565 163.05 310.828 156.345C327.948 149.639 329.232 149.354 342.928 149.211C350.775 149.211 359.335 149.639 362.046 150.353L367.039 151.351L363.615 147.785C360.048 144.075 355.483 142.078 336.08 136.371C324.096 132.805 323.24 132.377 313.253 121.962C297.845 105.84 293.423 104.271 284.435 111.404C273.449 120.107 263.177 120.107 253.19 111.262L248.482 107.267L243.917 114.115C240.778 118.966 237.354 122.105 232.932 124.387C227.082 127.098 225.798 127.241 220.519 125.671C213.957 123.817 205.682 115.97 204.398 110.548L203.542 107.124L196.837 111.975C193.127 114.686 188.562 117.254 186.565 117.825C181.286 119.109 171.299 116.113 167.162 111.975C162.739 107.552 157.318 106.554 151.611 109.122ZM158.174 132.377C167.019 137.085 169.445 137.655 177.862 137.513C183.141 137.513 189.846 136.514 192.842 135.23C198.834 132.662 202.401 133.375 202.401 137.085C202.401 141.365 190.845 144.931 177.434 144.931C167.019 144.931 165.022 144.503 154.892 139.367C143.051 133.518 141.767 132.377 143.051 129.238C144.192 125.957 147.188 126.67 158.174 132.377ZM307.689 130.379C308.117 132.234 305.264 134.231 296.133 138.654C281.01 145.787 270.738 147.214 258.897 143.505C249.338 140.509 246.628 137.941 249.624 134.802C251.478 132.947 252.477 132.947 258.184 135.087C261.608 136.371 268.456 137.37 273.306 137.513C281.01 137.655 283.579 136.942 291.853 132.519C302.268 126.955 306.976 126.385 307.689 130.379Z" fill="#B25367"/>
<path d="M63.8705 126.954C61.5878 129.237 59.7332 132.375 59.7332 133.945C59.7332 138.51 66.4385 145.501 71.7172 146.357C75.5692 147.07 77.1386 146.499 80.9906 142.933C83.416 140.65 86.84 138.225 88.4093 137.797C92.404 136.513 91.8333 135.229 84.7 128.666C76.5679 121.247 70.1479 120.677 63.8705 126.954Z" fill="#B25367"/>
<path d="M365.755 128.666C362.188 131.948 359.335 135.086 359.335 135.657C359.335 136.228 361.19 137.512 363.472 138.51C365.755 139.366 369.036 141.649 370.891 143.646C374.743 147.784 378.452 147.926 384.587 144.36C392.434 139.509 392.576 128.952 385.015 124.957C377.739 121.247 372.746 122.246 365.755 128.666Z" fill="#B25367"/>
<path d="M332.086 157.057C329.232 157.77 320.53 160.909 312.683 164.048C292.424 172.322 281.439 173.749 267.172 170.468C260.467 168.898 249.481 167.757 240.208 167.614C231.648 167.472 220.234 166.901 215.098 166.33C207.109 165.474 203.828 165.76 195.125 168.613C187.136 171.038 181.286 171.894 171.014 171.894C158.031 171.894 156.747 171.609 141.054 165.046C130.069 160.481 121.794 158.056 115.944 157.485L107.099 156.629L106.528 166.758C106.1 176.032 105.53 177.601 99.9657 185.162C87.1257 202.568 85.5563 211.699 93.9737 220.116C106.671 232.813 136.631 211.556 140.769 186.874C141.625 182.024 142.481 180.454 144.763 180.169C149.043 179.598 149.757 182.594 147.617 191.582C145.477 200.713 142.481 206.705 136.489 213.411C134.063 216.264 132.351 218.689 132.637 218.975C135.633 221.971 161.17 232.671 165.165 232.671C176.008 232.671 183.997 224.253 191.13 205.564C196.266 192.01 200.118 185.59 203.257 185.59C206.966 185.59 206.966 189.442 203.257 196.718C198.977 205.136 193.841 218.404 193.841 220.829C193.841 221.828 195.125 222.684 196.837 222.684C198.406 222.684 204.398 224.681 209.962 227.107C225.085 233.812 228.652 233.955 241.92 227.82C248.197 224.967 254.475 222.684 255.759 222.684C257.043 222.684 258.041 222.541 258.041 222.256C258.041 220.687 248.768 198.145 246.485 194.293C243.061 188.586 243.917 185.162 248.34 185.876C251.051 186.161 252.763 189.157 258.327 202.996C265.745 221.685 269.169 227.392 275.161 230.531C282.009 234.097 287.859 233.099 302.982 225.965C310.828 222.256 317.534 219.117 317.819 218.832C318.104 218.689 316.25 215.836 313.682 212.697C307.69 205.136 302.411 192.153 302.268 185.162C302.268 180.312 302.696 179.741 305.407 180.169C307.832 180.454 308.831 182.166 310.115 187.73C313.539 202.853 321.956 213.696 335.224 220.401C345.068 225.252 352.059 225.252 356.91 220.401C360.905 216.407 363.045 209.131 361.618 203.709C361.19 201.854 357.338 195.149 353.058 188.729C345.211 177.03 342.928 170.04 343.927 161.052C344.355 156.914 343.927 156.344 340.788 156.058C338.791 155.916 334.939 156.486 332.086 157.057Z" fill="#B25367"/>
<path d="M5.51966 197.575C5.51966 197.86 6.80366 200.856 8.373 204.28C12.9384 214.41 12.225 225.538 6.09032 241.374C-0.329711 257.781 -1.61372 269.907 1.95297 277.041C3.37964 279.751 10.6557 288.026 18.2171 295.445C37.4772 314.277 38.3332 317.13 39.7598 358.219C40.6159 385.04 41.0439 389.891 43.8972 396.881C47.0359 405.013 56.1666 416.855 61.4453 419.708C65.2973 421.706 65.868 420.707 63.8706 415.856C62.872 413.431 61.7306 397.309 61.0173 376.052C59.448 324.406 55.1679 307.857 37.7625 284.887C23.2104 265.77 20.2144 255.926 22.7824 235.667C24.6371 220.687 23.4958 212.555 18.9304 207.134C15.9344 203.567 5.51966 196.148 5.51966 197.575Z" fill="#B25367"/>
<path d="M439.799 199.715C428.814 206.42 425.533 215.693 427.958 233.67C430.811 255.64 428.386 263.915 413.406 284.031C403.134 297.727 397.712 308.57 393.29 324.977C390.722 334.535 390.294 340.955 389.723 371.201C389.438 394.313 388.582 408.723 387.298 413.573C386.299 417.711 385.871 420.992 386.442 420.992C388.011 420.992 396.286 414.429 398.996 410.863C408.127 399.306 410.695 387.75 410.695 358.361C410.695 321.125 414.119 311.281 432.095 295.587C448.359 281.463 449.929 278.895 449.786 264.914C449.786 255.212 449.073 251.503 445.078 241.944C438.801 226.964 438.087 217.405 441.939 206.42C443.509 201.712 444.65 197.717 444.507 197.575C444.222 197.289 442.082 198.288 439.799 199.715Z" fill="#B25367"/>
<path d="M117.513 228.391C114.375 229.961 108.811 231.53 105.101 232.101L98.2533 233.099V244.085C98.2533 254.642 97.968 255.784 90.9773 269.052C83.2732 283.889 81.8466 291.165 85.1279 299.154C86.1266 301.58 88.6946 304.433 90.6919 305.289C93.8306 306.716 95.2573 306.43 100.393 303.292C108.24 298.726 114.66 291.308 126.359 272.904C131.495 264.914 136.631 258.352 137.487 258.352C138.486 258.352 140.055 259.208 140.911 260.349C142.623 262.346 138.914 269.337 126.216 288.597C123.648 292.449 123.648 292.592 126.216 293.448C127.785 293.876 134.348 296.586 141.054 299.44C156.319 305.717 163.595 306.145 172.868 300.724C182.855 294.874 187.278 288.026 196.694 264.914C201.973 251.789 205.254 247.794 208.25 250.79C209.391 251.932 208.25 256.64 203.257 269.48C199.547 278.753 195.695 287.598 194.554 289.168C191.558 293.02 191.843 293.59 197.407 294.589C200.261 295.16 205.254 296.729 208.535 298.156C220.519 303.292 225.513 303.292 242.062 298.156C250.479 295.588 257.47 293.305 257.756 293.305C257.898 293.162 255.901 288.312 253.19 282.462C250.479 276.613 246.627 267.625 244.63 262.346C241.634 254.214 241.349 252.645 243.203 251.218C246.77 248.222 248.625 250.647 254.332 265.485C261.322 283.889 269.597 296.444 277.729 300.866C287.288 306.145 295.848 305.574 313.111 298.298L327.52 292.164L318.389 278.04C309.401 264.058 307.974 259.493 312.397 258.637C313.967 258.352 317.248 262.061 322.241 270.05C342.785 302.578 355.625 312.28 364.613 302.008C370.035 295.588 369.179 288.312 360.476 271.049C353.2 256.64 353.057 255.926 352.915 243.799V231.245H345.781C341.787 231.245 335.937 229.961 332.371 228.391C328.947 226.822 325.237 225.538 323.953 225.538C322.669 225.538 314.68 228.819 305.977 232.957C286.86 241.945 281.438 242.373 270.738 235.667C259.325 228.677 257.042 228.677 243.203 235.382C236.641 238.521 229.793 241.231 228.081 241.231C226.226 241.231 218.665 238.663 211.103 235.382C195.553 228.677 190.702 228.534 181.856 234.669C169.587 242.943 161.883 242.515 143.622 232.671C130.496 225.681 124.932 224.825 117.513 228.391Z" fill="#B25367"/>
<path d="M325.951 301.294C323.525 302.007 317.961 304.433 313.396 306.858C298.701 314.705 282.295 314.134 269.74 305.289C262.749 300.295 259.325 300.438 241.92 306.287C229.65 310.425 221.09 310.568 210.105 306.716C205.539 305.146 198.549 303.291 194.697 302.435C188.277 301.294 187.135 301.437 181.999 304.861C174.01 310.14 166.021 312.565 156.89 312.565C150.47 312.565 146.618 311.424 137.487 306.858C123.506 299.867 117.514 299.439 111.95 305.289C109.81 307.572 105.53 310.425 102.534 311.852C97.5402 314.134 97.1121 314.705 98.3962 317.844C101.82 326.832 99.2522 337.104 91.8335 343.952C83.8441 351.37 79.564 365.494 82.5601 374.625C84.7001 380.903 87.5534 382.472 97.2548 382.472C113.662 382.472 123.506 372.628 132.494 347.09C137.915 331.682 140.911 327.545 144.05 330.684C145.334 331.968 144.335 336.248 139.77 349.23C131.352 372.628 131.78 371.059 134.919 371.059C136.488 371.059 141.482 372.343 146.047 373.912C156.604 377.479 164.309 377.479 171.87 373.912C188.134 366.065 199.69 348.802 202.971 327.402C204.398 317.701 205.111 316.132 207.394 316.132C213.957 316.132 210.533 338.673 201.545 355.222C198.834 360.216 196.694 364.496 196.979 364.638C200.403 367.492 213.814 371.487 222.374 372.057C231.79 372.771 234.358 372.343 243.489 368.776C249.053 366.493 253.761 364.21 253.761 363.64C253.761 362.926 252.192 360.073 250.194 357.077C244.916 349.088 240.778 335.82 240.493 325.405C240.208 316.988 240.493 316.132 243.061 316.132C245.058 316.132 246.057 317.416 246.77 321.125C247.341 323.836 248.482 329.685 249.338 333.965C253.904 356.078 269.597 373.912 286.86 376.195C292.852 377.051 297.275 376.195 317.676 370.203C319.103 369.775 318.96 368.776 317.248 365.352C312.54 356.364 304.979 332.11 306.263 330.826C309.972 327.117 312.683 330.684 318.247 346.805C321.385 355.793 325.665 365.637 327.805 368.919C332.941 376.623 341.644 381.188 352.63 382.044C360.762 382.757 361.76 382.472 364.899 379.048C367.467 376.337 368.608 373.199 369.036 367.777C369.75 358.932 368.18 355.222 359.478 344.665C351.916 335.534 349.776 328.972 351.774 320.269C353.2 313.992 353.2 313.849 348.778 311.566C346.352 310.425 342.5 307.572 340.075 305.431C334.939 300.866 331.515 299.867 325.951 301.294Z" fill="#B25367"/>
<path d="M176.007 380.331C172.869 382.186 168.018 384.183 165.165 384.611C160.599 385.467 159.601 386.323 157.603 391.744C151.183 408.437 132.779 417.853 103.818 419.137C90.6922 419.85 85.6989 419.422 80.2775 417.567C76.5682 416.283 73.2868 415.57 73.0015 415.855C71.7175 417.139 77.2815 425.699 82.7029 430.978C101.535 449.239 136.346 450.809 158.174 434.259C170.015 425.271 177.434 413.573 181.714 397.451C183.997 388.606 184.567 376.622 182.855 376.907C182.142 376.907 179.146 378.476 176.007 380.331Z" fill="#B25367"/>
<path d="M267.172 385.897C269.027 404.016 276.018 418.996 287.859 430.124C309.687 450.383 344.926 451.096 367.61 431.551C372.603 427.414 379.309 417.712 379.309 414.716C379.309 414.431 376.027 415.287 372.175 416.856C358.622 421.992 330.231 419.709 314.252 412.291C305.407 408.153 294.707 397.596 292.852 391.033C291.711 386.896 290.57 385.897 285.148 384.328C281.582 383.329 276.446 381.189 273.592 379.62C270.739 378.051 267.885 376.767 267.315 376.767C266.744 376.767 266.601 380.904 267.172 385.897Z" fill="#B25367"/>
<path d="M206.681 417.566C206.681 455.516 206.681 456.372 209.962 461.08C216.953 471.495 232.646 471.637 240.35 461.508C243.632 457.228 244.202 455.088 244.202 447.669C244.202 442.819 244.06 425.27 243.917 408.864L243.774 378.904H225.228H206.681V417.566Z" fill="#B25367"/>
</g>
</svg>
