<svg width="478" height="490" viewBox="0 0 478 490" fill="none" xmlns="http://www.w3.org/2000/svg">
<path d="M290.818 1.42531C285.24 3.31067 282.019 5.9816 276.128 13.523C265.994 26.4849 263.873 31.5911 261.909 47.8523C260.023 63.2494 254.917 80.0605 248.083 93.3366L245.098 99.1498L248.318 102.999C250.047 105.12 251.775 106.77 252.168 106.613C253.503 106.063 273.928 87.3663 275.499 85.1667C278.327 81.1603 280.291 74.0117 281.234 64.8205C283.433 42.1177 285.633 34.8119 292.389 28.056C299.066 21.4573 305.822 20.3575 314.542 24.6781C320.826 27.7418 327.739 35.0476 335.595 46.8311C339.444 52.6442 344.236 58.7717 346.514 60.8141C352.72 66.3917 355.627 67.6486 374.638 73.069C390.192 77.4682 399.619 85.7166 402.604 97.4215C403.625 101.349 403.704 103.156 402.997 106.534C401.268 115.411 397.419 119.889 389.799 122.167C380.372 124.916 377.78 125.78 377.78 126.095C377.78 126.33 380.844 130.258 384.536 134.893C392.391 144.791 393.255 145.263 405.275 145.812C421.929 146.677 432.062 141.413 437.012 129.237C438.426 125.78 438.583 123.659 438.583 113.054C438.504 101.585 438.426 100.485 436.069 93.3366C431.827 80.6104 426.328 73.776 416.901 69.4554C414.544 68.3556 406.453 65.9203 398.99 63.9564C373.538 57.3577 365.918 51.7801 349.814 28.3702C339.209 12.9731 334.259 8.65253 321.926 3.86057C311.478 -0.145813 298.359 -1.16705 290.818 1.42531Z" fill="#B25367" fill-opacity="0.04"/>
<path d="M188.852 59.1629C185.866 61.8338 165.834 79.7448 144.467 98.834C123.1 117.923 105.267 134.027 104.875 134.577C104.089 135.677 108.724 141.255 136.611 173.149C141.168 178.412 146.038 183.989 147.452 185.639L150.045 188.624L161.357 179.433C167.641 174.406 172.905 170.006 173.14 169.535C173.454 169.142 168.034 161.836 161.2 153.352C154.365 144.79 148.159 136.934 147.374 135.756L146.038 133.713L165.285 114.702C175.811 104.333 184.767 95.7703 185.159 95.7703C185.552 95.7703 191.444 101.898 198.357 109.282C205.191 116.745 216.504 129.078 223.495 136.62C230.408 144.161 244.705 159.715 255.232 171.185C265.68 182.654 274.635 192.002 275.185 192.002C276.992 192.002 298.438 174.013 298.202 172.599C298.124 171.892 291.839 164.35 284.298 155.788C276.756 147.225 263.637 132.378 255.232 122.872C246.826 113.367 229.701 93.9635 217.289 79.8233C204.799 65.6831 194.508 54.1353 194.508 54.1353C194.429 54.1353 191.915 56.4135 188.852 59.1629Z" fill="#B25367" fill-opacity="0.04"/>
<path d="M84.9196 56.4917C77.2996 58.5342 71.9577 61.5193 66.8516 66.4684C60.7242 72.5173 59.5458 75.9737 58.8388 88.4642C58.3675 98.3624 58.2103 99.148 55.4609 104.568C53.8897 107.711 50.2761 113.131 47.3695 116.588C37.7071 128.371 34.5648 138.583 37.1572 150.131C39.3567 160.108 45.5627 168.042 54.204 171.891L57.5819 173.384L64.9662 166.785C69.0512 163.172 72.8219 160.186 73.2932 160.186C73.8431 160.186 84.2126 172.206 96.4674 186.896C108.722 201.586 118.935 213.605 119.092 213.605C119.563 213.605 136.06 200.329 140.773 196.165L143.759 193.573L141.323 190.588C139.988 189.017 138.26 187.681 137.474 187.681C136.688 187.681 132.918 186.11 129.068 184.225C101.338 170.792 76.2784 147.382 71.8006 130.806C69.8367 123.658 70.4652 116.116 73.4503 110.224C78.0852 101.112 89.0045 92.8634 100.16 89.9568C110.765 87.2073 121.056 89.2498 127.89 95.4558C132.603 99.6979 130.718 100.326 141.873 90.3496C145.487 87.1288 148.393 84.3008 148.393 83.9865C148.393 83.6723 146.901 82.9653 145.094 82.4154C136.688 79.9801 130.168 75.6595 119.72 65.9185C113.2 59.7911 110.136 57.8272 104.48 56.1775C98.9027 54.5278 91.9897 54.6849 84.9196 56.4917Z" fill="#B25367" fill-opacity="0.04"/>
<path d="M298.831 75.5813C290.111 83.437 277.385 94.9848 270.55 101.191C263.637 107.397 257.903 112.739 257.745 113.053C257.51 113.603 272.985 131.357 273.928 131.671C274.242 131.828 282.962 125.386 293.332 117.373C303.701 109.439 312.735 102.919 313.442 102.84C314.699 102.84 347.536 140.862 347.536 142.354C347.536 142.826 339.052 150.289 328.682 158.851C318.313 167.414 302.051 180.847 292.625 188.703C283.119 196.559 270.315 207.164 264.03 212.348C257.824 217.455 253.032 221.854 253.425 222.168C253.739 222.482 255.86 224.053 257.981 225.782C260.181 227.431 263.951 230.731 266.387 233.087C268.822 235.444 271.257 237.172 271.886 237.015C272.907 236.544 307.393 207.164 318.234 197.423C321.533 194.438 337.009 181.24 352.563 168.043C368.118 154.845 380.765 143.69 380.687 143.297C380.451 142.276 315.563 61.2055 315.013 61.284C314.778 61.284 307.472 67.7257 298.831 75.5813Z" fill="#B25367" fill-opacity="0.04"/>
<path d="M321.612 139.841C317.763 141.098 312.264 143.454 309.436 145.026C304.172 147.854 294.51 154.452 294.51 155.159C294.51 155.788 304.879 167.257 305.508 167.257C305.9 167.257 334.338 144.161 336.459 142.04C336.93 141.648 336.538 140.626 335.359 139.369C332.924 136.777 330.41 136.856 321.612 139.841Z" fill="#B25367" fill-opacity="0.04"/>
<path d="M199.77 158.381C189.872 166.472 177.853 176.292 173.061 180.141C168.269 184.069 157.9 192.553 149.887 199.073C130.719 214.627 125.299 219.184 124.985 219.969C124.67 220.755 142.738 242.672 143.681 242.672C144.467 242.672 141.56 245.029 195.764 200.016C218.938 180.691 237.949 164.665 237.949 164.43C237.949 163.723 219.017 143.691 218.388 143.691C218.074 143.691 209.747 150.29 199.77 158.381Z" fill="#B25367" fill-opacity="0.04"/>
<path d="M45.0924 195.224C30.4024 208.421 14.2197 222.797 9.19206 227.196C4.16444 231.595 0.000937131 235.523 0.000937131 235.837C-0.0776195 236.23 4.79289 242.436 10.7632 249.585C24.0393 265.689 40.2219 285.328 53.6551 301.746C63.7889 314.08 63.7889 314.08 65.5957 312.744C69.6021 309.759 110.609 275.273 110.687 274.88C110.687 274.016 92.6192 252.491 91.8337 252.491C91.4409 252.491 86.099 256.812 80.1287 262.075C74.0798 267.417 68.8166 271.738 68.4238 271.738C67.6382 271.738 57.7401 261.29 42.7357 244.793L35.7442 237.016L40.379 232.617C54.205 219.498 65.5957 209.678 66.617 209.835C67.7953 210.071 75.2582 218.948 108.723 259.561C116.186 268.595 126.948 281.714 132.683 288.627C138.339 295.54 143.288 301.196 143.681 301.196C144.545 301.196 165.677 283.6 165.677 282.893C165.677 282.343 149.337 262.389 141.01 252.806C139.675 251.234 123.885 232.302 105.974 210.621C88.0629 189.018 73.0586 171.264 72.5873 171.264C72.1945 171.264 59.7825 182.026 45.0924 195.224Z" fill="#B25367" fill-opacity="0.04"/>
<path d="M249.575 189.41C246.275 192.552 242.269 197.266 240.541 199.858C237.399 204.886 234.335 211.092 234.885 211.563C235.042 211.642 237.556 213.056 240.384 214.548L245.647 217.219L256.881 207.95C263.087 202.843 268.271 198.444 268.35 198.051C268.507 197.737 265.679 194.359 262.065 190.589L255.624 183.676L249.575 189.41Z" fill="#B25367" fill-opacity="0.04"/>
<path d="M389.956 207.792C374.402 220.519 361.204 231.438 360.654 231.988C359.869 232.773 361.126 234.659 367.253 241.729L374.794 250.527L377.622 248.17C379.272 246.914 388.699 238.979 398.597 230.495C408.574 222.09 417.058 215.255 417.529 215.334C418.001 215.491 424.128 222.718 431.12 231.438C440.075 242.593 443.689 247.621 443.217 248.406C442.903 249.035 433.398 257.754 422.164 267.888C410.931 277.943 401.032 286.899 400.168 287.684C397.576 290.041 403.232 296.09 347.221 230.495C335.359 216.669 325.304 204.886 324.754 204.336C323.968 203.393 321.847 204.886 313.049 212.506C307.157 217.533 302.365 222.09 302.365 222.482C302.365 223.189 306.607 227.981 324.361 247.385C328.132 251.47 341.408 266.16 353.898 279.986C391.92 322.092 396.162 326.727 396.712 326.57C397.262 326.334 408.809 316.358 454.451 276.765C464.82 267.731 474.483 259.404 475.897 258.226C477.311 257.047 478.254 255.712 477.939 255.241C477.704 254.848 468.748 244.164 458.143 231.516C447.538 218.869 434.34 203.158 428.92 196.559C423.5 189.96 418.865 184.618 418.629 184.618C418.393 184.618 405.51 195.066 389.956 207.792Z" fill="#B25367" fill-opacity="0.04"/>
<path d="M184.608 219.655C178.088 225.076 172.746 229.868 172.746 230.261C172.746 230.575 173.61 230.889 174.631 230.889C177.224 230.889 193.171 235.052 201.498 237.959C211.946 241.651 227.971 249.821 236.298 255.791C249.26 265.14 260.808 277.944 267.014 290.042C268.507 292.949 269.999 295.305 270.313 295.305C270.706 295.305 279.505 288.235 290.503 279.044C291.131 278.573 288.146 272.995 282.961 265.061C262.851 234.345 235.042 215.256 203.619 210.543C200.555 210.071 197.649 209.679 197.177 209.679C196.784 209.679 191.128 214.156 184.608 219.655Z" fill="#B25367" fill-opacity="0.04"/>
<path d="M210.847 256.341C208.726 258.226 189.244 274.33 167.641 292.163C106.917 342.36 104.796 344.167 104.639 345.11C104.481 345.581 114.537 358.386 127.027 373.626C139.439 388.787 153.815 406.541 159 412.983C164.184 419.503 168.662 424.766 168.976 424.688C169.212 424.609 179.267 416.203 191.286 406.07C203.306 395.936 213.597 387.216 214.304 386.745C215.325 385.959 214.068 384.309 206.448 375.982C201.577 370.562 197.257 366.241 196.943 366.32C196.628 366.32 190.894 370.955 184.138 376.454C177.382 382.031 171.412 386.431 170.783 386.273C169.841 386.038 144.153 356.658 141.482 352.73C140.303 350.923 140.303 350.766 142.267 349.195C143.367 348.331 155.7 337.647 169.683 325.549C183.667 313.53 204.563 295.54 216.189 285.564C227.737 275.666 237.164 267.26 237.164 266.867C237.164 265.375 217.76 252.806 215.561 252.884C215.168 252.963 213.047 254.455 210.847 256.341Z" fill="#B25367" fill-opacity="0.04"/>
<path d="M313.755 270.246C307.235 275.588 286.103 292.949 266.621 308.896C247.218 324.764 231.114 338.197 230.956 338.59C230.878 339.061 234.334 343.068 238.812 347.545C243.211 352.102 247.139 356.187 247.453 356.658C247.768 357.208 248.396 357.286 249.024 356.894C250.124 356.265 261.672 346.603 280.761 330.263C286.417 325.471 302.364 311.881 316.347 300.097L341.643 278.651L339.286 275.823C338.029 274.174 334.337 270.167 331.195 266.789L325.539 260.583L313.755 270.246Z" fill="#B25367" fill-opacity="0.04"/>
<path d="M217.132 295.069C211.947 299.625 206.37 304.496 204.72 305.91L201.656 308.502L212.968 320.364C219.096 326.884 224.595 332.226 225.145 332.226C226.873 332.226 227.03 330.655 225.773 326.334C223.181 317.379 223.574 300.882 226.559 290.905C227.109 289.02 227.344 287.292 227.109 287.135C226.794 286.977 222.317 290.591 217.132 295.069Z" fill="#B25367" fill-opacity="0.04"/>
<path d="M307.471 317.929C303.15 321.7 298.201 325.863 296.551 327.277L293.566 329.713L305.978 342.832C312.891 349.98 318.469 356.343 318.469 356.893C318.469 358.621 275.498 396.643 274.32 395.936C273.77 395.7 265.05 386.745 255.073 376.14C212.103 330.891 196.077 314.158 195.606 314.158C195.37 314.158 190.736 317.929 185.472 322.485C175.888 330.734 175.81 330.812 177.224 332.462C178.009 333.405 191.05 347.545 206.133 364.042C221.294 380.46 241.405 402.299 250.831 412.511C260.258 422.802 268.271 431.208 268.664 431.208C269.057 431.208 277.226 424.059 286.889 415.339C296.473 406.541 311.948 392.479 321.218 384.074C330.488 375.668 342.114 365.142 346.906 360.664L355.783 352.494L339.915 335.447C331.116 326.099 322.396 316.829 320.511 314.708C318.626 312.666 316.662 311.016 316.191 311.095C315.719 311.095 311.791 314.158 307.471 317.929Z" fill="#B25367" fill-opacity="0.04"/>
<path d="M24.3531 326.256C20.3467 346.995 21.2109 355.4 28.988 369.148C39.436 387.608 46.0348 392.95 70.2302 402.534C91.9904 411.175 101.417 416.674 107.937 424.609C109.901 427.044 114.458 434.899 118.15 442.048C124.356 454.146 133.076 467.972 134.018 467.108C134.175 466.872 133.311 464.83 131.976 462.473C128.598 456.581 126.791 451.004 123.177 435.528C115.243 401.434 107.859 387.53 96.3896 384.859C88.6125 383.052 73.3725 377.632 66.3809 374.097C56.09 368.912 49.3341 364.277 43.9923 358.464C36.5294 350.53 34.1727 344.716 31.7375 329.084C30.4805 320.914 28.3595 312.587 27.4954 312.587C27.2597 312.587 25.8457 318.793 24.3531 326.256Z" fill="#B25367" fill-opacity="0.04"/>
<path d="M448.088 325.156C446.36 325.549 442.589 326.727 439.683 327.827C423.814 333.797 417.294 341.339 408.024 364.749C400.876 382.895 394.67 391.222 385.007 396.014C379.508 398.685 371.731 398.528 365.997 395.543C360.341 392.636 352.878 385.016 349.028 378.339C347.379 375.432 345.729 373.154 345.415 373.233C345.101 373.39 340.623 377.239 335.438 381.874L326.09 390.28L327.975 395.386C333.788 411.49 340.466 419.424 354.763 427.515C363.954 432.7 368.432 433.878 379.351 433.957C387.521 433.957 390.192 433.643 395.063 432.15C406.296 428.615 413.523 423.666 419.886 415.261C425.935 407.169 429.235 398.685 434.812 376.611C437.483 365.77 440.547 355.008 441.568 352.651C446.596 340.632 452.409 333.012 461.05 327.277L465.371 324.371L458.301 324.449C454.373 324.528 449.817 324.842 448.088 325.156Z" fill="#B25367" fill-opacity="0.04"/>
<path d="M115.558 391.693C122.942 406.147 124.513 410.782 130.405 435.92C132.998 447.075 134.49 451.632 138.025 458.623C147.059 476.848 177.146 491.381 202.599 489.889C217.917 489.025 234.493 482.897 242.427 475.356C250.597 467.5 255.31 453.91 256.174 435.371L256.41 430.421L242.741 415.496C235.2 407.247 228.915 400.648 228.758 400.806C228.601 400.963 229.387 404.419 230.486 408.504C235.278 426.415 231.586 440.005 218.389 453.281C213.832 457.838 211.004 459.959 206.291 462.158C186.338 471.585 165.52 469.621 153.03 457.131C146.824 451.003 143.053 442.676 139.439 427.672C135.197 409.761 132.84 403.869 127.263 397.978C124.042 394.521 114.38 389.336 115.558 391.693Z" fill="#B25367" fill-opacity="0.04"/>
</svg>
