<svg width="618" height="615" viewBox="0 0 618 615" fill="none" xmlns="http://www.w3.org/2000/svg">
<path d="M327.213 0.806641C325.813 1.20664 322.313 2.50664 319.413 3.70664C313.113 6.20664 305.813 6.40664 295.213 4.20664C289.113 3.00664 286.513 2.90664 283.413 3.80664C278.113 5.20664 273.413 9.20664 271.113 14.3066C267.413 22.3066 269.513 41.6066 275.313 53.0066C278.113 58.6066 284.013 65.8066 285.713 65.8066C287.913 65.8066 288.513 63.8066 286.913 62.0066C283.613 58.2066 281.913 53.2066 281.513 45.4066C280.813 34.4066 282.313 29.4066 287.813 24.1066C292.813 19.2066 298.013 17.4066 306.713 17.5066C315.313 17.5066 320.313 19.2066 325.513 23.8066C334.013 31.3066 336.613 45.4066 332.113 59.3066L329.913 65.8066L332.313 67.8066L334.713 69.8066L339.713 64.5066C350.413 53.3066 354.713 39.6066 351.913 26.3066C350.013 17.4066 346.713 8.70664 344.013 5.30664C340.313 0.606636 333.513 -1.19336 327.213 0.806641Z" fill="#B25367" fill-opacity="0.1"/>
<path d="M300.312 27.8066C293.212 29.5066 290.512 35.9066 292.112 47.2066C293.312 55.5066 296.412 60.1066 300.112 59.0066C303.712 58.0066 314.112 58.4066 317.412 59.7066C319.312 60.4066 320.312 60.4066 321.012 59.5066C322.912 57.0066 324.212 51.2066 324.212 44.8066C324.212 37.2066 322.012 32.7066 316.712 29.7066C313.012 27.6066 304.912 26.7066 300.312 27.8066Z" fill="#B25367" fill-opacity="0.1"/>
<path d="M232.712 56.9066C193.712 60.6067 166.712 77.1066 152.612 106.107C146.912 117.907 144.812 127.407 145.412 139.307C146.112 152.107 150.412 160.907 160.612 170.507C173.812 183.007 187.712 188.307 207.712 188.307C221.412 188.207 228.612 186.707 240.112 181.207C257.212 173.207 272.412 158.807 278.312 145.107C280.712 139.607 281.912 124.207 280.512 116.807L279.712 112.307L274.712 112.207C265.412 112.007 254.412 105.007 250.012 96.4066C245.812 88.4066 246.712 70.5066 251.712 60.4066C252.512 58.8067 253.212 57.1066 253.212 56.6066C253.212 55.6066 245.212 55.7066 232.712 56.9066ZM207.512 103.607C223.812 110.807 228.512 132.707 216.712 146.607C215.212 148.407 211.912 151.107 209.312 152.607C205.312 155.007 203.712 155.307 196.212 155.307C186.212 155.307 181.812 153.407 175.812 146.807C170.712 141.107 168.912 136.507 168.812 128.807C168.712 116.807 174.612 107.907 185.812 103.207C192.812 100.307 200.212 100.407 207.512 103.607Z" fill="#B25367" fill-opacity="0.1"/>
<path d="M190.612 111.906C185.712 113.306 179.512 120.706 178.712 126.106C177.312 135.506 184.612 144.606 194.212 145.606C198.712 146.006 205.212 144.506 205.212 143.006C205.212 142.706 204.012 141.006 202.612 139.106C197.512 132.406 194.712 124.806 194.712 117.506C194.712 113.806 194.512 110.806 194.212 110.906C193.912 110.906 192.312 111.406 190.612 111.906Z" fill="#B25367" fill-opacity="0.1"/>
<path d="M204.912 115.506C203.412 117.006 204.412 121.606 207.512 127.206C211.912 135.006 213.212 135.406 213.212 128.806C213.212 123.406 212.212 120.706 208.912 117.006C206.712 114.706 206.012 114.406 204.912 115.506Z" fill="#B25367" fill-opacity="0.1"/>
<path d="M364.213 58.0054C364.213 58.8055 365.313 62.6055 366.513 66.4055C372.913 85.2055 369.413 98.9054 355.613 108.405C351.113 111.505 349.113 112.205 343.513 112.705L336.713 113.305L336.013 117.305C334.013 129.005 335.913 143.305 340.813 151.605C347.013 162.105 370.213 180.505 382.813 184.805C395.513 189.205 420.113 189.405 434.213 185.205C465.413 176.005 479.013 144.405 466.213 110.605C463.513 103.205 455.813 91.6055 449.613 85.4055C439.813 75.5055 421.313 65.2055 404.313 60.1055C397.213 58.0054 392.913 57.5054 380.013 57.1055C366.613 56.6055 364.213 56.8055 364.213 58.0054ZM431.713 104.205C457.113 116.005 451.413 152.805 423.613 156.405C413.013 157.705 401.013 151.205 396.013 141.505C393.113 135.605 392.513 126.405 394.713 119.705C396.913 113.205 404.113 105.705 410.413 103.505C417.113 101.105 425.813 101.405 431.713 104.205Z" fill="#B25367" fill-opacity="0.1"/>
<path d="M421.712 119.106C421.712 125.006 421.112 127.306 418.912 131.806C417.312 134.806 414.912 138.506 413.512 140.006C410.512 143.206 411.012 144.406 416.112 145.906C427.812 149.406 439.612 138.706 437.812 126.306C437.012 121.006 433.012 115.906 427.812 113.406C422.112 110.706 421.712 111.006 421.712 119.106Z" fill="#B25367" fill-opacity="0.1"/>
<path d="M406.212 119.506C404.412 122.206 403.712 124.406 403.712 128.406C403.712 131.406 404.112 133.806 404.712 133.906C406.312 134.106 412.212 122.506 412.212 119.006C412.212 114.606 409.412 114.806 406.212 119.506Z" fill="#B25367" fill-opacity="0.1"/>
<path d="M262.813 61.3054C258.013 66.5054 255.413 84.5054 258.613 90.7054C260.213 93.6054 268.613 101.805 270.113 101.805C270.613 101.805 271.713 102.105 272.613 102.405C273.913 102.905 274.113 102.105 273.513 96.5054C272.913 89.7054 274.113 83.0054 276.913 77.0054C278.413 73.8054 278.413 73.7054 274.513 69.5054C272.413 67.2054 269.713 63.8054 268.713 62.0054C266.413 58.1054 265.813 58.1054 262.813 61.3054Z" fill="#B25367" fill-opacity="0.1"/>
<path d="M353.212 63.8058C353.212 64.3058 350.312 67.8058 346.812 71.6058L340.312 78.4058L341.812 82.9058C342.912 85.8058 343.312 89.9058 343.012 95.0058C342.712 103.506 343.012 104.006 348.012 101.406C351.112 99.8058 356.412 94.3058 358.112 91.1058C359.912 87.6058 359.412 76.7058 357.212 69.4058C356.012 65.8058 354.712 62.8058 354.212 62.8058C353.612 62.8058 353.212 63.2058 353.212 63.8058Z" fill="#B25367" fill-opacity="0.1"/>
<path d="M302.013 69.9058C297.113 71.3058 289.413 78.2058 287.113 83.3058C283.513 91.2058 285.513 103.206 291.513 109.606C300.113 118.906 315.613 118.406 324.813 108.606C330.213 103.006 331.413 99.4058 331.013 91.2058C330.713 85.1058 330.213 83.3058 327.713 79.6058C321.413 70.8058 311.813 67.2058 302.013 69.9058Z" fill="#B25367" fill-opacity="0.1"/>
<path d="M291.413 130.806C291.413 142.606 287.913 153.306 281.813 160.606C280.313 162.206 279.213 164.606 279.213 165.806C279.213 170.106 276.013 180.406 272.713 186.606L269.413 192.906L271.413 196.506C274.413 201.506 274.813 211.406 272.813 232.506C271.913 242.306 270.913 251.506 270.713 253.006C269.213 262.106 276.613 246.906 281.513 230.706C284.613 220.806 296.213 174.406 299.113 160.806C301.513 149.406 303.213 137.306 303.213 131.306V126.906L297.813 125.406C294.813 124.506 292.213 123.806 291.913 123.806C291.713 123.806 291.513 127.006 291.413 130.806Z" fill="#B25367" fill-opacity="0.1"/>
<path d="M318.813 125.707L313.913 127.207L314.513 154.307C314.913 169.107 315.813 186.007 316.613 191.807C319.413 211.907 325.613 235.507 331.813 249.707C334.613 256.107 342.013 267.807 343.213 267.807C343.713 267.807 344.513 265.507 345.113 262.707C346.013 258.707 345.913 253.907 344.613 241.407C343.713 232.607 342.913 220.107 342.813 213.807C342.713 203.907 343.013 201.707 344.813 198.007L347.013 193.707L343.513 186.907C341.613 183.107 339.313 176.307 338.313 171.707C337.013 165.307 335.613 161.807 332.413 156.907C327.113 148.707 326.113 145.507 325.513 133.507C325.213 128.207 324.713 123.907 324.313 123.907C324.013 124.007 321.513 124.807 318.813 125.707Z" fill="#B25367" fill-opacity="0.1"/>
<path d="M128.213 131.606C121.913 137.806 119.813 144.606 119.913 157.806C120.013 169.706 122.313 177.106 128.613 186.706C136.913 199.106 147.913 206.906 162.913 210.906C174.213 214.006 203.213 214.006 217.913 211.006C235.313 207.506 247.813 201.306 256.413 191.906C261.213 186.706 265.813 179.106 264.813 178.106C264.613 177.806 262.013 179.506 259.213 181.706C251.313 187.906 242.313 192.606 233.613 194.906C227.013 196.706 222.813 197.106 207.713 197.206C191.613 197.306 188.913 197.006 181.713 194.906C177.313 193.606 171.513 191.406 168.713 190.106C148.713 180.106 136.213 159.106 136.213 135.606C136.213 124.906 135.213 124.506 128.213 131.606Z" fill="#B25367" fill-opacity="0.1"/>
<path d="M481.113 127.005C481.113 127.205 480.913 130.905 480.813 135.305C480.413 146.505 478.613 154.005 474.113 163.605C466.713 179.705 451.413 191.405 430.713 197.005C420.013 199.805 397.913 200.105 388.213 197.505C379.713 195.205 365.213 188.005 357.713 182.305C354.413 179.805 351.413 177.805 350.913 177.805C349.013 177.805 356.113 188.705 361.713 194.405C373.413 206.305 393.813 213.105 421.213 214.405C459.213 216.205 485.213 202.305 494.213 175.305C497.213 166.305 497.513 151.005 494.913 143.105C492.713 136.705 488.513 130.905 484.313 128.505C482.613 127.505 481.213 126.805 481.113 127.005Z" fill="#B25367" fill-opacity="0.1"/>
<path d="M105.713 175.407C100.613 183.007 95.7127 194.007 93.1127 203.307L91.0127 211.007L93.7127 213.807C98.2127 218.507 105.613 221.107 114.713 221.207C121.613 221.307 123.513 220.907 128.513 218.407C131.913 216.807 134.813 214.607 135.413 213.207C136.413 211.107 135.913 210.307 130.513 205.107C127.313 201.907 123.113 197.107 121.213 194.307C117.113 188.407 111.213 175.207 111.213 172.007C111.213 168.507 109.713 169.407 105.713 175.407Z" fill="#B25367" fill-opacity="0.1"/>
<path d="M505.212 173.007C505.212 176.207 499.312 189.407 495.312 195.207C493.512 197.807 489.312 202.507 486.112 205.607C482.912 208.707 480.212 211.807 480.212 212.407C480.212 213.007 481.212 214.407 482.512 215.607C491.712 224.307 514.012 223.807 522.712 214.807C525.512 211.807 525.612 211.707 524.312 206.507C522.112 197.707 517.512 186.907 512.612 178.707C507.812 170.807 505.212 168.807 505.212 173.007Z" fill="#B25367" fill-opacity="0.1"/>
<path d="M90.2126 174.507C86.7126 176.007 72.4126 175.807 65.9126 174.207L63.0126 173.507L63.9126 180.407C64.3126 184.207 64.7126 191.407 64.6126 196.507C64.5126 207.107 62.9126 211.207 52.3126 227.507L46.4126 236.607L50.7126 242.607C57.0126 251.207 62.8126 263.407 65.3126 272.907C67.1126 279.707 67.3126 282.907 66.9126 290.307C66.5126 295.207 66.0126 300.407 65.7126 301.807C65.2126 304.107 65.7126 304.607 71.4126 307.207C79.1126 310.807 90.7126 321.907 94.6126 329.607C98.8126 337.907 100.513 346.207 99.8126 354.407L99.2126 361.607L104.613 364.207C119.813 371.707 128.013 390.507 126.813 415.407C126.213 429.707 125.613 428.807 138.413 434.307C143.213 436.407 149.213 439.807 151.613 441.907C154.013 444.107 156.213 445.807 156.513 445.807C157.313 445.807 153.413 428.907 150.613 420.307C146.813 408.607 136.613 387.807 128.413 375.207C111.513 348.807 98.6126 322.707 90.3126 298.007C75.3126 253.207 75.4126 213.007 90.4126 182.007C92.6126 177.407 94.3126 173.607 94.1126 173.407C93.9126 173.207 92.1126 173.707 90.2126 174.507Z" fill="#B25367" fill-opacity="0.1"/>
<path d="M525.513 181.405C532.613 195.605 535.513 206.305 537.213 224.505C541.113 266.005 523.413 321.205 489.213 374.305C475.913 395.005 467.313 413.905 462.713 433.105C459.213 447.305 459.313 448.105 464.013 443.605C466.113 441.505 472.213 437.805 478.413 434.905C484.213 432.205 489.513 429.105 490.013 428.105C490.713 426.905 490.713 424.405 490.013 420.805C488.013 409.805 490.713 391.805 495.913 381.505C499.413 374.505 506.513 367.305 512.713 364.305L517.913 361.905L517.013 356.705C515.813 349.905 517.513 339.805 521.213 332.005C525.213 323.505 535.513 312.905 544.313 308.305C550.913 304.905 551.313 304.405 550.813 301.905C550.413 300.505 549.913 295.505 549.613 290.805C548.713 277.605 550.613 271.305 561.313 252.105L570.413 235.805L566.913 231.705C556.113 219.105 550.913 200.705 553.113 182.905C553.713 178.205 554.013 174.305 553.813 174.005C553.613 173.805 552.413 174.205 551.213 174.805C545.813 177.705 531.813 176.905 522.913 173.305C521.513 172.705 522.113 174.605 525.513 181.405Z" fill="#B25367" fill-opacity="0.1"/>
<path d="M257.712 205.407C251.812 210.607 239.112 216.307 226.712 219.507L215.712 222.307L216.012 225.307C216.912 233.507 223.312 241.007 236.212 249.007C245.812 254.907 252.712 257.207 257.312 256.107L260.712 255.207L262.412 240.707C264.112 226.107 264.712 206.307 263.612 203.407C262.812 201.207 262.312 201.407 257.712 205.407Z" fill="#B25367" fill-opacity="0.1"/>
<path d="M353.113 204.006C352.312 205.606 352.112 209.906 352.513 218.806C353.213 231.806 355.713 254.206 356.713 255.906C358.113 258.006 366.812 256.806 373.712 253.406C387.112 247.006 396.713 238.206 399.713 229.706C401.612 224.506 401.612 222.806 399.812 222.806C399.013 222.806 394.513 221.706 389.713 220.306C378.613 217.106 365.913 211.006 359.412 205.806C354.312 201.806 354.312 201.806 353.113 204.006Z" fill="#B25367" fill-opacity="0.1"/>
<path d="M148.712 219.907C154.712 240.007 174.912 253.507 193.612 249.807C199.012 248.707 207.812 245.107 210.912 242.607C211.812 241.907 211.512 240.807 210.012 238.107C208.812 236.207 207.312 232.207 206.712 229.407L205.512 224.307L195.612 224.607C179.012 225.107 161.212 222.607 149.512 218.107C148.312 217.607 148.112 218.007 148.712 219.907Z" fill="#B25367" fill-opacity="0.1"/>
<path d="M462.212 219.906C452.612 223.406 441.512 225.006 426.012 225.006H411.412L410.212 229.506C409.612 232.006 408.212 235.806 407.212 237.906C406.112 240.006 405.212 242.106 405.212 242.606C405.212 244.006 418.312 249.706 424.412 250.906C428.412 251.706 431.312 251.706 435.412 250.906C446.012 248.706 460.012 238.106 464.712 228.806C466.712 224.806 468.912 217.706 468.012 217.906C467.812 217.906 465.212 218.806 462.212 219.906Z" fill="#B25367" fill-opacity="0.1"/>
<path d="M133.112 227.106C125.812 230.806 116.212 232.306 108.912 231.106C105.812 230.506 103.012 230.306 102.712 230.606C102.412 230.906 102.212 233.206 102.212 235.806C102.212 244.506 109.112 252.506 122.012 258.606C128.312 261.606 130.612 262.206 138.812 262.606C146.112 263.006 149.212 262.706 152.512 261.406C157.412 259.606 163.112 254.206 161.612 253.006C161.112 252.606 158.212 250.106 155.112 247.506C149.212 242.606 142.912 234.106 141.012 228.606C140.412 226.806 139.712 225.106 139.312 224.806C139.012 224.506 136.212 225.506 133.112 227.106Z" fill="#B25367" fill-opacity="0.1"/>
<path d="M89.5124 240.406C89.9124 251.506 90.8124 259.806 92.5124 267.906C95.2124 280.806 100.712 299.406 102.112 300.206C102.612 300.506 105.912 299.906 109.412 298.806C120.412 295.406 127.212 287.706 128.712 276.706L129.412 272.006L124.012 270.306C116.712 267.906 105.012 260.506 100.712 255.606C94.6124 248.406 92.7124 243.406 92.6124 233.806C92.5124 226.406 92.3124 225.306 90.7124 224.906C89.0124 224.606 88.9124 225.506 89.5124 240.406Z" fill="#B25367" fill-opacity="0.1"/>
<path d="M476.612 226.506C473.612 235.506 463.912 248.206 456.212 253.006L453.712 254.606L456.112 257.206C461.712 263.206 474.612 265.306 486.512 262.206C504.412 257.606 515.312 246.206 514.412 233.306C514.212 231.406 513.512 231.306 502.512 231.306C490.212 231.306 490.412 231.406 478.012 225.006C477.512 224.806 476.912 225.506 476.612 226.506Z" fill="#B25367" fill-opacity="0.1"/>
<path d="M525.312 225.707C524.412 226.307 523.912 229.007 523.812 234.907C523.712 245.107 521.312 250.607 514.112 257.807C508.412 263.507 502.312 267.307 493.812 270.407L487.712 272.607L488.012 277.007C488.812 287.807 496.212 296.207 508.312 299.807C515.412 302.007 514.612 302.807 519.112 288.307C524.512 270.907 526.312 259.707 526.912 241.507C527.212 232.307 527.312 224.807 527.112 224.807C526.912 224.807 526.112 225.207 525.312 225.707Z" fill="#B25367" fill-opacity="0.1"/>
<path d="M1.7123 241.107C5.5123 249.307 6.7123 259.907 5.3123 273.207C3.5123 291.007 3.8123 294.607 7.2123 301.407C8.8123 304.607 14.2123 312.007 19.0123 317.707C30.5123 331.107 33.9123 336.707 35.8123 345.907C37.7123 355.007 36.8123 364.307 32.0123 382.807C29.3123 393.407 28.8123 397.207 28.7123 407.307C28.7123 421.007 29.8123 424.207 37.5123 432.507C46.9123 442.707 65.0123 447.307 77.2123 442.607C79.5123 441.707 79.1123 441.407 72.5123 439.207C55.0123 433.507 46.5123 422.907 45.5123 405.407C44.7123 393.607 46.4123 385.707 52.7123 371.807C66.2123 341.907 64.6123 335.207 39.5123 315.407C27.1123 305.707 24.0123 299.307 19.8123 274.207C16.5123 255.107 15.3123 250.907 10.9123 244.507C9.0123 241.707 1.7123 235.807 0.1123 235.807C-0.287701 235.807 0.4123 238.207 1.7123 241.107Z" fill="#B25367" fill-opacity="0.1"/>
<path d="M611.512 239.707C603.512 245.507 600.612 252.607 596.612 275.807C592.212 301.607 589.612 306.407 573.412 319.107C567.512 323.807 561.412 329.307 560.012 331.507C553.712 340.507 554.512 349.507 563.512 369.807C570.012 384.307 571.712 392.507 570.912 404.707C569.712 423.807 560.412 435.807 543.712 439.907C536.612 441.607 536.312 442.407 542.212 443.807C559.712 448.007 578.912 439.307 585.812 424.007C589.612 415.807 589.312 407.307 584.812 389.307C579.912 369.407 579.212 365.607 579.212 357.807C579.212 345.207 583.312 336.007 596.412 319.607C611.412 300.707 613.212 295.507 611.312 276.007C609.812 261.107 610.912 250.507 614.812 242.407C616.112 239.707 617.212 237.307 617.212 237.107C617.212 236.207 615.012 237.107 611.512 239.707Z" fill="#B25367" fill-opacity="0.1"/>
<path d="M213.312 252.805C205.512 258.005 196.912 260.305 185.912 260.305C180.612 260.305 176.212 260.505 176.212 260.905C176.212 262.705 183.112 270.205 187.612 273.205C200.712 281.905 221.512 284.805 234.712 279.805C240.812 277.505 249.212 270.405 249.212 267.605C249.212 266.805 246.912 265.405 243.512 264.305C240.312 263.205 233.612 259.505 228.512 256.105C223.312 252.605 218.812 249.805 218.412 249.905C218.012 249.905 215.712 251.305 213.312 252.805Z" fill="#B25367" fill-opacity="0.1"/>
<path d="M390.712 255.106C383.212 260.406 372.812 265.806 370.012 265.806C365.212 265.806 368.312 272.306 375.212 276.906C386.712 284.506 405.912 284.906 422.112 277.706C428.812 274.806 436.412 268.606 438.912 264.106L441.212 260.106L431.412 260.606C420.312 261.106 413.112 259.206 403.212 253.406L397.612 250.106L390.712 255.106Z" fill="#B25367" fill-opacity="0.1"/>
<path d="M163.712 267.307C159.312 270.607 152.712 272.807 145.612 273.507L139.412 274.107L138.712 278.707C138.312 281.207 137.212 285.207 136.212 287.607C135.112 289.907 134.512 292.507 134.812 293.207C136.512 297.707 154.512 298.607 168.612 294.907C176.312 292.907 186.312 288.107 186.912 286.207C187.112 285.607 185.512 284.207 183.512 283.107C178.712 280.407 172.712 274.507 169.312 269.207L166.612 265.107L163.712 267.307Z" fill="#B25367" fill-opacity="0.1"/>
<path d="M448.413 268.306C446.613 272.206 438.313 280.706 433.513 283.506C428.413 286.506 428.813 287.506 436.513 291.406C447.413 297.006 469.313 299.806 478.013 296.706C482.113 295.306 482.613 293.406 480.313 287.406C479.313 284.606 478.113 280.406 477.713 278.006L477.013 273.806H471.913C465.013 273.806 459.613 272.206 454.413 268.706C452.013 267.106 450.013 265.806 449.813 265.806C449.713 265.806 449.013 266.906 448.413 268.306Z" fill="#B25367" fill-opacity="0.1"/>
<path d="M258.812 271.305C256.412 277.505 247.212 285.805 239.612 288.605C231.512 291.605 220.912 293.105 213.512 292.305C207.612 291.705 207.212 291.805 207.212 293.705C207.212 302.305 214.212 319.005 221.512 327.905C229.312 337.405 239.612 341.105 247.812 337.205C251.412 335.505 256.212 330.505 256.212 328.505C256.212 327.805 253.912 325.905 251.012 324.305C245.112 320.805 239.112 313.805 236.712 307.305C235.012 303.005 235.012 302.705 236.812 300.705C239.912 297.305 243.312 298.505 246.012 304.005C252.012 316.705 265.612 322.905 280.512 319.805C290.512 317.805 300.212 309.205 301.812 301.005C302.412 297.905 302.412 297.805 299.012 297.805C294.412 297.805 285.612 295.105 280.712 292.205C272.612 287.505 262.212 274.205 262.212 268.705C262.212 265.405 260.512 266.705 258.812 271.305Z" fill="#B25367" fill-opacity="0.1"/>
<path d="M354.212 268.406C354.212 271.806 348.712 281.206 343.712 286.406C337.412 292.806 328.312 297.506 320.012 298.406C316.812 298.806 314.212 299.506 314.212 300.006C314.212 302.406 317.712 308.706 321.012 312.106C327.012 318.306 331.412 320.106 342.012 320.606C350.812 321.006 351.612 320.906 357.612 317.906C364.212 314.706 367.912 310.806 370.512 304.606C372.412 300.006 375.012 298.506 378.312 300.106C381.612 301.806 381.712 303.906 378.912 310.006C376.212 316.106 369.612 323.106 364.012 325.906C361.912 327.006 360.212 328.306 360.212 328.806C360.212 329.406 361.812 331.606 363.812 333.806C370.112 340.806 378.812 341.106 388.612 334.706C396.212 329.606 406.012 313.206 408.212 301.906C410.012 292.306 410.512 292.806 399.712 292.806C394.612 292.806 387.912 292.306 385.012 291.706C372.512 289.106 361.212 280.706 357.712 271.506C356.012 266.906 354.212 265.306 354.212 268.406Z" fill="#B25367" fill-opacity="0.1"/>
<path d="M190.713 295.906C185.213 300.106 175.413 304.106 165.213 306.106L158.713 307.406L158.413 314.706C158.113 321.806 158.213 322.206 161.213 325.306C167.713 332.106 180.213 335.806 189.413 333.906C195.813 332.506 199.713 329.706 202.313 324.706L204.313 320.706L201.813 314.506C200.513 311.106 198.813 304.606 198.113 300.006C197.313 295.506 196.513 291.806 196.213 291.906C195.913 291.906 193.513 293.706 190.713 295.906Z" fill="#B25367" fill-opacity="0.1"/>
<path d="M418.912 298.206C418.612 301.706 417.112 308.206 415.612 312.606C412.712 321.406 412.912 323.806 416.312 328.306C423.812 337.706 444.212 336.706 454.612 326.406L458.712 322.306L458.412 315.006C458.112 308.506 457.812 307.806 455.912 307.406C440.012 304.306 428.812 299.906 422.912 294.406C421.412 293.006 420.012 291.806 419.812 291.806C419.612 291.806 419.212 294.706 418.912 298.206Z" fill="#B25367" fill-opacity="0.1"/>
<path d="M122.412 303.805C120.112 305.305 115.412 307.405 112.112 308.405C106.612 310.205 106.212 310.505 106.712 312.805C107.712 317.105 125.412 351.905 126.912 352.505C129.212 353.405 136.412 347.705 140.412 341.805C144.812 335.505 147.812 324.905 148.312 314.305L148.712 307.305L142.612 306.705C138.712 306.305 134.712 305.205 131.712 303.505C129.112 302.005 126.912 300.805 126.812 300.905C126.812 300.905 124.812 302.205 122.412 303.805Z" fill="#B25367" fill-opacity="0.1"/>
<path d="M484.613 304.307C482.113 305.907 478.213 307.007 474.213 307.507L467.913 308.107L468.513 316.807C469.313 327.607 472.313 337.507 476.513 343.007C480.213 347.807 487.913 354.007 489.613 353.507C491.013 353.107 510.213 315.007 510.213 312.607C510.213 311.507 508.513 310.407 505.013 309.307C502.113 308.307 497.313 306.307 494.513 304.707C491.613 303.107 489.113 301.807 489.013 301.807C488.813 301.907 486.913 303.007 484.613 304.307Z" fill="#B25367" fill-opacity="0.1"/>
<path d="M264.213 334.807C260.913 339.907 256.013 344.307 250.613 347.107C247.713 348.607 245.913 352.507 241.613 365.907C240.813 368.407 246.513 373.307 251.913 374.907C259.313 377.007 274.113 376.707 277.613 374.407L280.413 372.607L280.013 361.907C279.513 352.407 276.313 335.007 274.413 332.207C274.013 331.607 272.313 330.807 270.513 330.507C267.613 329.907 267.113 330.207 264.213 334.807Z" fill="#B25367" fill-opacity="0.1"/>
<path d="M342.113 333.506C339.513 340.406 337.113 353.206 336.513 363.006L335.913 373.806L340.713 375.906C349.213 379.606 364.713 377.106 372.413 370.706L376.113 367.706L373.613 362.506C372.313 359.706 370.913 355.606 370.613 353.506C370.013 350.206 369.313 349.406 365.313 347.306C360.213 344.806 352.713 337.306 351.213 333.306C350.413 331.306 349.613 330.806 346.713 330.806C343.713 330.806 343.013 331.306 342.113 333.506Z" fill="#B25367" fill-opacity="0.1"/>
<path d="M208.012 334.307C207.012 335.607 206.212 338.207 206.212 340.007C206.212 344.307 203.612 355.107 201.812 358.607C201.012 360.107 199.412 362.307 198.312 363.507C197.112 364.707 196.212 366.207 196.212 366.707C196.212 368.307 208.312 373.807 211.912 373.807C216.812 373.807 222.112 371.307 227.112 366.507C231.112 362.707 236.212 354.007 236.212 351.107C236.212 350.407 234.412 349.407 232.312 348.807C227.412 347.507 219.512 341.707 215.112 336.107C213.212 333.807 211.312 331.907 210.712 331.907C210.212 331.907 208.912 332.907 208.012 334.307Z" fill="#B25367" fill-opacity="0.1"/>
<path d="M402.412 336.707C398.512 341.607 388.212 348.507 383.612 349.407C381.712 349.707 380.212 350.507 380.212 351.207C380.212 354.007 386.312 364.607 389.812 367.907C394.512 372.307 399.912 374.207 406.212 373.607C411.112 373.107 420.212 369.307 420.212 367.707C420.212 367.207 418.812 364.907 417.212 362.607C413.712 357.807 411.412 350.707 410.812 342.407C410.312 337.107 408.312 332.807 406.212 332.807C405.812 332.807 404.112 334.607 402.412 336.707Z" fill="#B25367" fill-opacity="0.1"/>
<path d="M154.212 336.307C153.612 337.807 153.212 339.307 153.212 339.707C153.212 340.107 151.412 343.307 149.212 346.707L145.212 352.807L149.312 355.807C156.212 360.807 163.712 363.107 172.712 363.207C181.912 363.207 187.512 361.007 191.212 355.807C193.712 352.207 196.512 344.107 195.412 343.407C195.012 343.207 192.412 343.407 189.712 344.007C181.012 345.907 166.412 342.207 158.412 336.207L155.212 333.707L154.212 336.307Z" fill="#B25367" fill-opacity="0.1"/>
<path d="M455.312 338.406C447.212 343.406 440.312 345.106 430.012 344.606C421.612 344.206 421.212 344.306 421.212 346.306C421.212 347.506 422.412 350.806 423.812 353.606C425.712 357.406 427.612 359.506 430.912 361.406C435.012 363.906 435.912 364.006 444.712 363.606C452.312 363.206 455.112 362.506 460.312 360.106C463.812 358.406 467.712 356.206 469.012 355.206L471.412 353.206L467.812 348.006C465.812 345.006 463.712 340.906 463.112 338.706C462.412 336.606 461.612 334.806 461.312 334.906C461.012 335.006 458.312 336.506 455.312 338.406Z" fill="#B25367" fill-opacity="0.1"/>
<path d="M133.812 361.106C132.012 362.406 132.112 362.706 135.412 367.406C139.412 373.106 146.612 385.606 151.112 394.506C154.712 401.706 155.112 401.806 163.312 398.506C174.612 393.806 181.612 385.606 181.012 377.606L180.712 373.406L174.612 373.706C164.312 374.106 151.512 370.006 142.912 363.406C137.712 359.506 136.512 359.106 133.812 361.106Z" fill="#B25367" fill-opacity="0.1"/>
<path d="M476.313 362.207C473.513 365.107 464.013 370.307 457.513 372.407C454.913 373.307 448.913 374.107 444.213 374.207C435.713 374.507 435.713 374.507 435.413 377.307C434.913 381.707 437.913 388.307 442.413 392.307C447.313 396.807 455.613 400.807 460.013 400.807C463.013 400.807 463.513 400.407 465.613 395.507C468.413 389.207 478.513 371.607 481.813 367.107C484.813 363.107 484.813 362.407 481.713 361.007C478.513 359.507 478.913 359.407 476.313 362.207Z" fill="#B25367" fill-opacity="0.1"/>
<path d="M232.112 376.407C231.412 377.207 229.012 378.907 226.812 380.107C223.412 381.907 221.112 382.307 212.712 382.307C203.912 382.307 202.012 382.007 197.512 379.707C194.612 378.307 192.012 377.307 191.712 377.607C191.412 377.907 191.212 379.407 191.212 381.007C191.212 384.907 189.212 389.407 184.812 395.107C180.412 400.807 180.712 401.407 189.112 405.507C194.312 408.107 195.612 408.307 206.712 408.307C217.812 408.307 219.112 408.107 224.412 405.507C231.312 402.107 239.312 393.707 241.812 387.207L243.512 382.607L239.112 378.807C234.012 374.307 233.912 374.307 232.112 376.407Z" fill="#B25367" fill-opacity="0.1"/>
<path d="M377.712 378.907C375.512 380.607 373.612 382.307 373.412 382.907C372.812 384.607 378.012 394.507 381.512 398.507C386.312 403.707 393.812 407.707 401.312 408.907C413.612 410.907 431.412 407.007 434.312 401.707C435.112 400.107 434.712 399.007 432.112 396.107C428.112 391.507 425.312 385.307 425.212 381.007C425.212 379.307 425.012 377.807 424.712 377.807C424.412 377.807 421.812 379.007 418.912 380.507C409.612 385.407 391.212 383.807 385.712 377.807C383.412 375.207 382.512 375.307 377.712 378.907Z" fill="#B25367" fill-opacity="0.1"/>
<path d="M275.213 386.007C273.213 386.607 267.713 386.807 262.413 386.407L253.113 385.807L252.113 388.607C249.313 396.107 246.113 400.907 239.913 407.007L233.113 413.807L234.713 416.807C240.813 428.607 252.413 433.707 262.613 428.907C264.913 427.907 267.513 426.807 268.413 426.507C271.013 425.607 276.313 407.707 279.613 388.507C280.313 384.507 280.413 384.507 275.213 386.007Z" fill="#B25367" fill-opacity="0.1"/>
<path d="M337.212 388.106C337.212 392.606 340.312 407.206 343.312 416.406C346.212 425.406 346.312 425.506 351.212 428.106C354.012 429.506 357.712 431.006 359.512 431.306C367.212 432.806 376.612 427.206 381.312 418.406L383.712 413.806L378.412 409.206C372.312 403.906 367.612 397.406 365.112 390.906C363.412 386.406 363.312 386.306 359.512 386.806C353.612 387.606 343.012 387.406 340.012 386.406C337.512 385.706 337.212 385.806 337.212 388.106Z" fill="#B25367" fill-opacity="0.1"/>
<path d="M168.212 407.305C166.812 408.005 164.012 409.005 162.012 409.305C159.912 409.705 158.212 410.305 158.212 410.605C158.212 411.005 159.412 414.905 160.812 419.305C162.212 423.705 164.112 431.105 165.112 435.705C166.612 443.605 167.012 444.205 170.212 446.005C174.212 448.205 178.412 447.805 184.512 444.605C192.212 440.705 203.212 427.305 203.212 421.805C203.212 419.405 202.812 419.105 196.412 418.005C187.512 416.505 181.412 413.805 176.412 409.405C172.012 405.405 171.712 405.305 168.212 407.305Z" fill="#B25367" fill-opacity="0.1"/>
<path d="M441.513 409.007C436.713 414.107 428.813 417.407 417.013 419.307C412.513 420.007 412.113 421.807 415.213 427.707C420.413 438.007 433.413 447.807 441.713 447.807C447.813 447.707 449.513 445.607 451.613 435.807C452.613 431.107 454.513 424.007 455.813 420.007C458.613 411.607 458.713 410.807 457.013 410.807C456.313 410.807 453.113 409.707 450.013 408.407L444.313 406.107L441.513 409.007Z" fill="#B25367" fill-opacity="0.1"/>
<path d="M218.113 418.107L213.413 419.107L213.013 423.907C212.613 427.207 211.313 430.807 208.813 434.807C204.713 441.407 204.613 444.007 207.813 453.107C212.313 465.807 229.113 474.207 240.613 469.407C242.713 468.507 245.313 467.807 246.313 467.807C247.513 467.807 249.713 465.007 253.013 459.507C260.513 446.907 263.213 442.007 263.213 441.107C263.213 440.707 259.513 440.307 255.013 440.307C248.313 440.307 245.813 439.907 242.213 438.007C236.213 434.907 229.813 428.507 226.113 422.007C224.413 419.207 223.013 416.907 222.913 416.907C222.813 417.007 220.613 417.507 218.113 418.107Z" fill="#B25367" fill-opacity="0.1"/>
<path d="M391.112 422.006C389.912 424.306 386.412 428.706 383.312 431.806C375.912 439.306 368.512 442.306 359.512 441.406C356.012 441.106 353.212 441.106 353.212 441.406C353.212 442.306 360.512 455.306 364.812 461.906C367.912 466.906 369.712 468.706 371.812 469.106C373.412 469.406 377.012 470.206 379.712 470.906C383.912 471.906 385.612 471.806 390.712 470.406C401.512 467.306 411.212 454.606 411.212 443.606C411.212 441.906 409.612 438.006 407.612 434.706C405.312 431.106 403.812 427.106 403.412 424.306C402.912 419.406 402.812 419.306 397.012 418.306C393.412 417.706 393.212 417.906 391.112 422.006Z" fill="#B25367" fill-opacity="0.1"/>
<path d="M111.812 429.005C110.812 430.605 107.712 433.505 104.812 435.505C102.012 437.505 98.1125 440.705 96.2125 442.605C88.7125 450.005 71.4125 455.505 59.3125 454.305C55.7125 454.005 50.4125 452.905 47.3125 451.805C44.2125 450.805 41.6125 450.105 41.4125 450.305C41.2125 450.505 42.9125 453.405 45.2125 456.805C50.0125 463.905 58.8125 471.205 65.2125 473.305C86.2125 480.205 113.712 475.105 128.912 461.405C133.712 457.105 139.212 449.305 139.212 446.905C139.212 446.305 135.512 444.005 131.012 441.905C119.812 436.705 114.412 432.605 114.012 429.105L113.712 426.305L111.812 429.005Z" fill="#B25367" fill-opacity="0.1"/>
<path d="M502.213 430.106C502.213 433.306 496.813 437.306 485.813 442.306C481.713 444.106 478.113 446.106 477.813 446.706C476.813 448.306 481.913 457.506 486.113 461.706C490.613 466.206 497.713 469.706 509.813 473.506C517.513 475.806 520.513 476.206 532.213 476.206C545.413 476.306 545.813 476.206 552.213 473.106C555.813 471.306 560.513 468.406 562.613 466.706C566.413 463.506 575.213 452.406 575.213 450.806C575.213 450.306 572.813 450.906 570.013 452.006C563.413 454.506 549.713 455.506 542.113 453.906C531.113 451.606 523.413 446.806 507.613 432.406C502.413 427.706 502.213 427.606 502.213 430.106Z" fill="#B25367" fill-opacity="0.1"/>
<path d="M189.212 453.107C184.512 455.807 182.612 456.307 175.712 456.507L167.712 456.707L167.412 461.307C167.012 466.507 169.512 474.107 172.612 477.607C180.612 486.607 199.712 486.907 209.012 478.307L212.712 474.807L209.012 471.607C204.012 467.107 199.612 460.607 197.712 454.707C196.812 452.007 195.712 449.907 195.412 449.907C195.012 450.007 192.212 451.407 189.212 453.107Z" fill="#B25367" fill-opacity="0.1"/>
<path d="M420.213 452.206C420.213 455.606 412.813 468.006 408.513 471.806C404.113 475.606 404.013 475.906 405.613 477.706C406.513 478.706 409.613 480.806 412.513 482.406C416.913 484.806 418.913 485.206 425.213 485.206C440.313 485.306 449.113 476.906 449.213 462.306V457.306H441.913C435.713 457.306 433.713 456.806 428.113 454.006C420.613 450.406 420.213 450.306 420.213 452.206Z" fill="#B25367" fill-opacity="0.1"/>
<path d="M352.213 467.507C352.213 473.707 349.713 490.707 347.813 497.907C341.313 522.407 328.813 534.607 310.113 534.807C301.413 534.807 294.613 532.707 287.013 527.507C275.713 519.707 266.613 506.007 261.813 489.407C260.413 484.507 259.213 478.607 259.213 476.207C259.213 473.807 258.813 471.807 258.313 471.807C256.713 471.807 244.013 490.207 242.513 494.707C240.513 501.107 239.713 519.907 241.113 528.407C242.613 537.307 247.313 547.007 251.813 550.507C256.813 554.207 264.213 554.807 270.813 551.907C279.113 548.207 279.513 548.607 286.213 566.607C292.313 582.607 298.213 587.307 312.213 587.307C329.613 587.307 335.013 580.607 339.713 553.607C340.613 548.007 343.813 546.707 355.513 547.007C364.413 547.307 365.013 547.207 368.613 544.407C375.213 539.407 380.213 525.907 380.213 513.207C380.213 503.207 378.013 498.007 368.913 485.707C364.313 479.407 358.813 471.707 356.813 468.507C354.813 465.407 352.913 462.807 352.713 462.807C352.413 462.807 352.213 464.907 352.213 467.507Z" fill="#B25367" fill-opacity="0.1"/>
<path d="M217.412 484.406C212.312 489.806 204.212 493.706 196.712 494.506C193.712 494.806 191.212 495.606 191.212 496.206C191.212 496.806 192.512 499.606 194.212 502.406C197.412 508.006 202.012 512.406 206.912 514.506C213.312 517.106 214.212 516.506 220.412 506.506C223.512 501.506 228.712 493.706 232.012 489.306C235.312 484.906 237.912 481.306 237.912 481.206C237.812 481.106 234.112 480.806 229.712 480.506L221.712 480.006L217.412 484.406Z" fill="#B25367" fill-opacity="0.1"/>
<path d="M390.212 480.806C388.812 481.206 385.812 481.606 383.512 481.706C381.112 481.806 379.212 482.006 379.212 482.306C379.212 482.606 382.012 486.506 385.312 490.906C388.712 495.306 393.812 502.806 396.712 507.606C401.812 516.006 402.112 516.306 405.312 516.006C409.812 515.506 416.612 511.506 419.512 507.506C422.312 503.906 425.212 498.406 425.212 496.906C425.212 496.406 422.812 495.706 420.012 495.306C411.812 494.206 403.712 490.206 398.712 484.606C394.212 479.506 394.112 479.506 390.212 480.806Z" fill="#B25367" fill-opacity="0.1"/>
<path d="M163.512 486.507C160.212 495.807 157.612 501.107 153.512 507.507C151.912 509.907 151.912 510.207 154.112 514.407C157.312 520.307 165.012 527.407 171.712 530.407C182.712 535.407 194.312 535.507 204.212 530.507C209.112 528.107 210.312 526.107 207.512 525.207C195.112 521.207 186.812 513.107 181.812 499.807C179.812 494.207 179.112 493.507 174.612 491.407C171.912 490.107 168.812 488.107 167.812 486.907C165.512 484.307 164.312 484.207 163.512 486.507Z" fill="#B25367" fill-opacity="0.1"/>
<path d="M449.213 487.305C447.913 488.705 444.413 491.005 441.513 492.305C438.413 493.805 436.213 495.505 436.213 496.405C436.213 499.605 430.113 510.705 425.713 515.605C421.313 520.505 412.613 525.805 409.013 525.805C404.113 525.805 410.113 531.105 417.513 533.305C430.213 537.105 445.113 533.605 455.113 524.405C458.913 520.905 464.213 513.105 464.213 511.005C464.213 510.305 462.413 506.705 460.213 503.105C458.113 499.505 455.513 494.305 454.613 491.405C452.413 484.705 452.013 484.305 449.213 487.305Z" fill="#B25367" fill-opacity="0.1"/>
<path d="M139.212 523.407C128.412 534.207 117.812 538.307 101.212 538.307C91.6124 538.307 90.2124 538.007 84.7124 535.307C81.4124 533.707 78.3124 532.207 77.8124 532.007C76.7124 531.407 77.9124 535.107 80.8124 541.507C83.9124 548.007 90.1124 554.407 95.9124 557.007C99.4124 558.507 102.212 558.907 108.612 558.807C113.012 558.607 117.212 558.607 117.912 558.707C118.612 558.707 120.912 562.507 123.112 567.107C131.712 585.007 144.312 591.807 156.812 585.207C169.912 578.207 169.012 578.507 172.112 579.807C175.212 581.007 177.512 584.907 178.712 590.807C179.112 592.707 180.012 595.407 180.712 596.907C182.812 600.807 190.812 607.707 195.812 609.907C200.912 612.007 213.912 614.507 214.912 613.407C215.212 613.107 214.612 611.807 213.512 610.507C209.712 606.507 204.512 596.507 202.112 588.807C200.112 582.507 199.712 579.307 199.812 568.307C199.812 559.307 200.312 553.407 201.512 549.207C202.412 545.807 203.212 542.807 203.212 542.607C203.212 542.307 200.912 542.707 198.012 543.407C188.512 545.907 177.312 544.407 166.412 539.007C160.212 536.007 150.412 527.507 147.212 522.207C146.012 520.307 144.712 518.807 144.412 518.807C144.012 518.907 141.712 520.907 139.212 523.407Z" fill="#B25367" fill-opacity="0.1"/>
<path d="M471.212 520.806C471.212 521.306 468.312 524.906 464.712 528.606C453.712 540.306 441.412 545.406 425.812 544.606C420.812 544.306 415.812 543.706 414.812 543.306C413.212 542.606 413.012 542.806 413.612 544.406C414.012 545.406 415.112 549.906 415.912 554.306C418.112 565.906 417.312 582.006 413.812 591.606C411.212 599.206 406.612 607.506 402.912 611.506C401.812 612.806 401.112 614.106 401.412 614.406C402.612 615.506 417.812 612.506 422.912 610.206C430.212 606.706 434.612 601.406 437.212 592.906C439.612 584.806 443.312 579.806 446.812 579.806C448.112 579.806 452.212 581.506 455.912 583.506C461.612 586.706 463.512 587.206 469.112 587.206C474.512 587.306 476.512 586.806 480.412 584.606C485.712 581.406 490.812 574.806 494.112 566.806C497.512 558.606 497.512 558.706 505.612 559.406C517.412 560.406 526.112 556.606 532.612 547.506C535.812 543.006 539.812 534.106 539.012 533.306C538.812 533.106 536.412 534.006 533.712 535.306C530.912 536.706 525.512 538.306 521.612 539.006C507.512 541.306 490.312 535.906 478.512 525.306C472.312 519.706 471.212 519.006 471.212 520.806Z" fill="#B25367" fill-opacity="0.1"/>
</svg>
