<svg width="25" height="24" viewBox="0 0 25 24" fill="none" xmlns="http://www.w3.org/2000/svg">
<path d="M15.9072 7.5L19.466 4M21.4996 2L19.466 4L21.4996 2ZM11.7281 11.61C12.2531 12.1195 12.6705 12.726 12.9562 13.3948C13.2418 14.0635 13.3902 14.7813 13.3926 15.5066C13.3951 16.232 13.2517 16.9507 12.9705 17.6213C12.6894 18.2919 12.2762 18.9012 11.7547 19.4141C11.2331 19.9271 10.6136 20.3334 9.93171 20.6099C9.24982 20.8864 8.51906 21.0275 7.7815 21.025C7.04394 21.0226 6.31415 20.8767 5.63416 20.5958C4.95417 20.3148 4.3374 19.9043 3.81937 19.388C2.80067 18.3507 2.23698 16.9614 2.24972 15.5193C2.26247 14.0772 2.85062 12.6977 3.8875 11.678C4.92438 10.6583 6.32704 10.0798 7.79335 10.0673C9.25967 10.0548 10.6723 10.6091 11.7271 11.611L11.7281 11.61ZM11.7281 11.61L15.9072 7.5L11.7281 11.61ZM15.9072 7.5L18.9576 10.5L22.5164 7L19.466 4L15.9072 7.5Z" stroke="#3E3D4B" stroke-width="2" stroke-linecap="round" stroke-linejoin="round"/>
</svg>
