<svg width="25" height="24" viewBox="0 0 25 24" fill="none" xmlns="http://www.w3.org/2000/svg">
<g clip-path="url(#clip0_3635_6932)">
<path d="M12.9052 -0.500542C-15.0947 -12.0004 -2.37503 7.87253 -2.37503 14.5C-14.3748 34.5002 6.27769 26.4996 12.9052 26.4996C19.5326 26.4996 30.1251 35 26.6251 14.5C38.6251 -13.4999 19.5326 -0.500542 12.9052 -0.500542Z" fill="#40B3E0"/>
<path d="M18.301 6.90284L16.1576 17.7093C16.1576 17.7093 15.8579 18.4587 15.0335 18.099L10.0875 14.307L8.28899 13.4378L5.26143 12.4185C5.26143 12.4185 4.7968 12.2537 4.7518 11.894C4.7068 11.5343 5.27643 11.3395 5.27643 11.3395L17.3117 6.61821C17.3117 6.61821 18.3009 6.18359 18.3009 6.90303" fill="white"/>
<path d="M9.70726 17.5878C9.70726 17.5878 9.56288 17.5743 9.38288 17.0047C9.20316 16.4351 8.28882 13.4376 8.28882 13.4376L15.558 8.82132C15.558 8.82132 15.9777 8.56651 15.9627 8.82132C15.9627 8.82132 16.0376 8.86632 15.8127 9.07613C15.588 9.28604 10.1024 14.217 10.1024 14.217" fill="#D2E5F1"/>
<path d="M11.9838 15.7608L10.0275 17.5445C10.0275 17.5445 9.87453 17.6605 9.70728 17.5878L10.0819 14.2747" fill="#B5CFE4"/>
</g>
<defs>
<clipPath id="clip0_3635_6932">
<rect x="0.461914" width="24" height="24" rx="4" fill="white"/>
</clipPath>
</defs>
</svg>
