<svg width="170" height="137" viewBox="0 0 170 137" fill="none" xmlns="http://www.w3.org/2000/svg">
<g opacity="0.08">
<path d="M101.264 0.820492C98.6809 1.9016 96.879 4.96473 96.879 8.14798C96.879 12.1721 97.1793 12.5325 100.783 12.5325C104.747 12.5325 107.27 13.3733 110.813 15.956L113.636 17.998L114.057 15.7758C114.297 14.5745 114.297 11.9919 114.117 10.0099C113.456 2.32203 107.51 -1.88227 101.264 0.820492Z" fill="#BD5D72"/>
<path d="M51.4726 12.7735C48.5296 14.0348 46.1272 17.158 44.6256 21.4824C41.4424 30.6118 39.8808 32.4737 31.232 37.3386C19.6401 43.8253 16.5169 49.471 20.2407 57.279C21.8624 60.7025 24.7453 63.5855 31.7725 68.8709C37.5384 73.1953 41.3823 77.3395 43.3644 81.3036L44.8058 84.1865L45.8869 81.3636C46.4275 79.802 47.2683 78.1203 47.6888 77.6398C48.7098 76.4386 48.0491 71.0331 46.4875 67.7297C45.7668 66.2282 43.3043 62.7446 40.9619 59.9818C36.0969 54.2159 35.6164 53.2549 35.6164 48.9906C35.6164 44.8463 37.118 42.5039 40.7817 40.8222C44.7458 38.9603 45.7067 37.9993 47.5086 34.2155C49.4306 30.1913 52.7339 28.3895 56.8181 29.0502C64.506 30.3715 68.5301 35.5969 67.8694 43.525L67.5691 47.3689L69.2508 45.0265C70.2118 43.7652 71.7734 42.1436 72.8545 41.3628C74.6563 40.0414 74.7164 39.9213 74.356 36.6179C73.6353 30.6118 72.3139 25.1462 70.6923 21.8428C67.1487 14.3351 57.8992 10.0107 51.4726 12.7735Z" fill="#BD5D72"/>
<path d="M97.9003 16.3779C93.8161 17.8794 91.4737 20.9426 91.4737 24.8466C91.4737 31.4533 96.8792 35.9579 112.195 42.2644C115.198 43.4656 118.261 44.847 118.982 45.3875C119.763 45.868 120.543 46.1683 120.664 45.9882C121.084 45.6278 118.081 33.4954 116.699 29.7115C115.979 27.9097 114.237 24.7865 112.795 22.8045C108.531 17.0386 102.825 14.5761 97.9003 16.3779Z" fill="#BD5D72"/>
<path d="M85.8878 29.4094C82.8247 31.2113 82.104 38.3586 84.5064 43.4638C86.1881 47.1275 91.5336 52.5931 95.4977 54.6953C97.0593 55.5962 103.186 57.9386 109.072 59.9206C119.342 63.4642 126.489 66.5874 130.093 69.11C131.054 69.7707 131.955 70.131 132.135 69.9508C132.916 69.17 129.853 61.1819 127.39 57.5181C126.009 55.5361 123.426 52.6532 121.564 51.2117C118.381 48.6891 115.498 47.1275 101.444 40.4607C95.1373 37.4576 90.0921 33.1933 89.3113 30.3103C88.8909 28.6887 87.6897 28.3283 85.8878 29.4094Z" fill="#BD5D72"/>
<path d="M170.274 38.2383C169.313 41.4816 169.373 45.8061 170.454 48.3887C171.956 51.8723 175.86 56.557 180.605 60.461C187.872 66.4071 189.013 70.3111 187.031 81.8429C184.929 93.8552 185.41 98.9604 189.494 108.27C193.518 117.399 194.299 121.423 194.059 130.493C193.878 137.219 193.638 138.721 192.497 140.943C189.133 147.25 182.887 149.172 174.298 146.469C172.196 145.868 170.394 145.448 170.214 145.568C170.094 145.748 170.815 147.61 171.896 149.712C174.418 154.878 178.623 159.442 181.566 160.343C186.311 161.785 191.716 159.622 193.818 155.538C194.299 154.697 195.08 151.754 195.56 149.052C196.461 144.487 197.482 141.664 202.227 131.153C203.969 127.189 204.089 126.529 204.089 119.742V112.534L201.146 106.528C197.362 98.7802 196.581 95.7771 196.581 88.7499C196.581 84.2453 196.941 81.9029 198.143 77.9389C200.485 70.3111 200.365 67.7285 197.302 61.6623C193.998 54.8753 191.296 52.2326 184.028 48.5689C176.821 44.9652 174.298 42.8631 172.376 38.899L170.935 35.8959L170.274 38.2383Z" fill="#BD5D72"/>
<path d="M76.7587 43.1047C65.7074 48.2099 67.1489 64.6067 79.2212 71.2135C81.924 72.6549 85.3475 73.736 91.5338 75.0574C101.624 77.2196 108.531 79.6221 118.802 84.5471C127.691 88.7514 135.439 93.6764 139.943 98.0008L143.247 101.124L142.826 98.4213C141.144 88.1508 137.781 80.4629 132.796 75.4778C128.592 71.2735 122.105 68.0302 109.192 63.5857C92.0743 57.6996 84.927 52.8947 80.7227 44.4861C80.002 43.1047 79.4014 41.9636 79.2813 41.9636C79.2212 41.9636 78.08 42.5041 76.7587 43.1047Z" fill="#BD5D72"/>
<path d="M145.349 46.1694C138.682 47.8511 133.276 52.9563 132.916 57.8814C132.616 62.0857 133.456 62.9866 135.679 60.8244C138.562 58.1216 142.285 56.8003 145.769 57.2207C151.355 57.8814 153.457 60.464 155.078 68.4522C156.46 75.2992 156.94 76.4403 161.445 81.9059C169.253 91.3356 169.854 98.603 163.427 104.129C160.364 106.711 156.52 108.033 151.955 108.033C148.532 108.033 148.412 108.093 148.832 109.354C149.072 110.135 149.553 111.877 149.913 113.318C150.274 114.82 151.054 116.201 151.775 116.561C153.277 117.402 162.706 117.943 165.589 117.402C168.592 116.802 172.256 113.438 173.577 109.955C174.358 107.913 174.658 105.57 174.598 101.426C174.538 94.699 173.698 92.4167 168.652 85.1492C163.787 78.3022 163.547 77.5815 163.307 66.7705C163.067 56.8603 162.646 54.7582 160.004 50.7941C157.421 46.77 151.054 44.788 145.349 46.1694Z" fill="#BD5D72"/>
<path d="M62.4038 60.2842C60.1215 62.5665 57.8391 68.6327 57.8391 72.5367C57.8391 75.5998 60.9023 80.5849 64.3258 83.1075C68.5301 86.1706 72.3139 87.3719 86.6085 90.3149C105.708 94.2189 111.594 96.1408 121.804 101.727C131.114 106.772 137.601 112.177 143.126 119.505C145.048 122.087 146.79 124.009 146.97 123.829C147.751 122.988 147.271 115.841 146.189 112.658C143.006 103.348 134.297 95.6603 118.201 87.9124C108.11 83.0474 103.426 81.3657 92.3744 78.8431C81.0228 76.2605 75.9777 73.9181 71.5932 69.1132C68.3499 65.5696 66.3078 61.8458 66.2477 59.5034C66.2477 57.5814 64.8062 57.8817 62.4038 60.2842Z" fill="#BD5D72"/>
<path d="M52.1333 76.9188C45.4665 82.1442 47.8689 95.9583 56.3976 101.364C59.8812 103.646 66.7282 105.388 74.9566 106.229C84.5664 107.25 96.5186 109.052 103.246 110.493C124.387 115.058 138.201 124.608 144.327 138.842C145.168 140.704 146.009 142.266 146.249 142.266C146.97 142.266 147.451 137.461 147.03 134.518C145.529 123.707 132.375 110.013 116.339 102.565C108.711 99.0214 98.4406 95.7781 89.071 93.9763C70.0916 90.2525 65.3468 88.6308 60.1214 84.0061C58.4998 82.6247 56.758 80.2823 55.9772 78.6006C55.2565 76.9188 54.4156 75.5975 54.2354 75.5975C53.9952 75.5975 53.0342 76.1981 52.1333 76.9188Z" fill="#BD5D72"/>
<path d="M45.887 101.063C42.944 104.186 42.1032 110.913 43.7248 118.54C44.4456 121.964 45.2864 123.766 48.2895 128.03C53.8151 136.078 54.2356 137.159 54.2356 145.328C54.2356 156.86 57.1185 165.208 63.485 172.115C66.9085 175.899 70.2719 178.001 75.3772 179.563C79.2211 180.764 90.1523 182.206 90.7529 181.605C90.9331 181.425 90.3324 180.524 89.3114 179.623C88.3504 178.722 86.6687 176.92 85.5275 175.659C83.6056 173.437 83.3653 173.316 80.3022 173.437C74.236 173.677 68.41 169.833 66.2478 164.127C64.3859 159.022 63.7853 153.736 64.5661 148.031L65.2268 143.106L61.8634 138.241C58.0795 132.655 56.9383 128.631 57.4188 122.685C57.9594 115.898 60.8423 113.135 67.4491 113.135C70.6323 113.135 71.8936 113.435 74.236 114.817C77.7796 116.919 80.8427 120.943 82.5845 126.048C83.9059 129.772 83.9659 130.793 83.9659 147.971V165.989L85.7678 169.593C86.7888 171.515 89.1913 174.758 91.1132 176.8L94.6569 180.404L94.837 184.488C95.0172 189.953 96.759 193.317 101.384 197.101C107.81 202.266 115.919 204.368 127.51 203.948C133.937 203.768 135.859 203.407 140.724 201.786C153.157 197.581 158.142 192.596 159.643 182.746C160.424 177.581 157.601 172.295 154.058 172.295C150.394 172.295 149.072 176.56 151.895 179.202C153.277 180.524 153.457 180.944 153.097 183.287C152.856 184.728 151.835 187.371 150.754 189.173C146.73 195.9 141.144 197.641 127.991 196.44C123.787 196.08 119.042 195.239 117 194.518C108.291 191.575 102.525 184.127 98.8612 171.094C98.2005 168.692 97.7801 163.226 97.4797 150.673C96.9392 128.871 95.798 123.345 90.0922 114.576L87.93 111.213L84.1461 110.793C70.8125 109.351 61.1426 107.309 56.6981 105.027C55.4368 104.426 53.1545 102.925 51.5929 101.783C48.2895 99.2608 47.6889 99.1406 45.887 101.063Z" fill="#BD5D72"/>
<path d="M95.1371 116.861C99.4015 125.209 99.9421 128.753 100.483 148.874C101.023 168.634 101.444 171.337 105.708 179.985C108.291 185.271 113.396 190.316 117.66 191.757C121.925 193.199 122.165 192.959 119.282 190.016C115.918 186.472 110.513 175.361 108.891 168.694C107.33 161.967 107.39 157.823 109.252 147.853C110.993 138.663 111.414 128.513 110.213 124.489C109.552 122.266 107.51 118.783 104.807 115.299C103.966 114.278 102.585 113.678 99.5216 113.077C92.1941 111.635 92.3743 111.515 95.1371 116.861Z" fill="#BD5D72"/>
<path d="M36.8176 115.119C35.196 115.84 31.8926 116.14 22.7032 116.38C12.673 116.68 10.3306 116.921 8.40859 117.882C4.44454 119.864 1.0811 124.969 0.360368 130.074L0 132.957L2.76282 130.434C6.66681 126.831 8.82902 126.41 19.7001 127.011C31.1719 127.672 35.7365 127.612 38.0189 126.651C40.9018 125.449 41.2622 124.188 40.3612 118.783C39.9408 116.14 39.4603 114.038 39.2801 114.098C39.1 114.098 37.9588 114.578 36.8176 115.119Z" fill="#BD5D72"/>
<path d="M109.492 115.538C109.492 115.659 110.152 116.74 110.933 117.941C112.795 120.644 114.297 127.19 114.297 132.476C114.297 134.758 113.576 140.764 112.735 145.869C110.152 161.245 111.174 169.293 117.12 180.825C120.303 187.012 123.486 190.195 128.471 192.117C134.297 194.399 141.444 193.738 145.228 190.675C146.37 189.714 146.37 189.654 144.327 190.135C143.186 190.375 140.063 190.615 137.42 190.555C128.051 190.495 123.666 186.051 122.105 175.239C121.264 169.654 121.624 165.93 124.387 151.275C125.949 142.626 126.549 137.821 126.549 132.956C126.609 124.608 125.708 122.325 121.204 119.923C118.321 118.361 109.492 115.058 109.492 115.538Z" fill="#BD5D72"/>
<path d="M130.033 128.272C130.814 132.416 130.153 138.543 127.45 151.936C123.967 169.474 124.267 178.784 128.592 183.469C131.895 187.072 136.339 188.394 141.625 187.312C146.61 186.291 151.295 182.327 149.132 181.006C148.832 180.826 146.91 181.246 144.928 181.967C136.88 184.85 132.315 181.607 132.315 172.958C132.315 167.973 134.117 163.468 138.141 158.603C142.886 152.837 143.967 150.495 143.547 146.891C142.946 142.146 138.862 134.458 134.297 129.654C132.135 127.311 130.153 125.449 129.913 125.449C129.673 125.449 129.733 126.711 130.033 128.272Z" fill="#BD5D72"/>
<path d="M149.313 127.67C149.132 128.211 149.253 129.833 149.613 131.274C150.694 135.118 150.514 140.644 149.193 144.007L148.111 146.89L150.454 150.434C153.817 155.419 157.962 159.503 161.445 161.185C164.688 162.806 172.196 163.827 176.46 163.287L178.863 162.987L177.061 161.966C172.797 159.623 169.734 154.758 165.95 144.368C162.106 133.797 159.223 129.592 154.418 127.61C151.535 126.349 149.793 126.409 149.313 127.67Z" fill="#BD5D72"/>
<path d="M7.38753 130.975C4.08416 132.717 1.74176 136.621 2.16219 139.924C3.00305 146.23 8.16833 151.576 18.4388 156.561C27.388 160.945 29.7904 163.348 33.6344 171.576C39.8207 185.03 41.142 187.372 44.4454 190.976C48.5896 195.361 51.893 197.162 58.4998 198.424C61.2626 198.964 64.2056 199.505 65.0465 199.685C66.2477 199.925 65.7672 199.325 62.8842 196.682C60.8422 194.82 58.1394 191.757 56.8781 189.895C50.7518 180.525 47.8689 177.763 42.6436 176.201C39.2201 175.18 39.2801 173.678 42.8838 171.816C46.6076 169.955 47.4485 168.273 46.4875 164.969C46.0671 163.528 44.8058 160.945 43.6646 159.264C41.2621 155.54 38.5594 153.978 30.2709 151.636C22.9434 149.534 19.4599 147.672 16.8172 144.669C13.0934 140.284 12.8531 135.96 16.0964 131.695L17.658 129.653H13.8742C11.1113 129.653 9.3095 130.014 7.38753 130.975Z" fill="#BD5D72"/>
</g>
</svg>
