<svg width="25" height="24" viewBox="0 0 25 24" fill="none" xmlns="http://www.w3.org/2000/svg">
<rect x="0.461914" width="24" height="24" rx="4" fill="#00D261"/>
<path d="M16.335 9.44809C16.5584 9.44809 16.7748 9.45838 16.9913 9.4858C16.4118 6.7984 13.4759 4.79999 10.1386 4.79999C6.39634 4.79999 3.3418 7.29543 3.3418 10.4696C3.3418 12.3 4.36463 13.8117 6.06122 14.9806L5.38747 16.9893L7.76129 15.8204C8.61307 15.9849 9.29031 16.1529 10.1421 16.1529C10.3585 16.1529 10.5645 16.1426 10.7809 16.1255C10.6413 15.6833 10.5645 15.2137 10.5645 14.7269C10.561 11.8167 13.1094 9.44809 16.335 9.44809ZM12.687 7.63478C13.1931 7.63478 13.5318 7.96728 13.5318 8.47117C13.5318 8.9682 13.1931 9.3007 12.687 9.3007C12.1703 9.3007 11.6641 8.9682 11.6641 8.47117C11.6676 7.96728 12.1738 7.63478 12.687 7.63478ZM7.92536 9.3007C7.41918 9.3007 6.90252 8.9682 6.90252 8.47117C6.90252 7.96385 7.41918 7.63478 7.92536 7.63478C8.44202 7.63478 8.77714 7.96728 8.77714 8.47117C8.77714 8.97163 8.44202 9.3007 7.92536 9.3007ZM22.5418 14.6515C22.5418 11.9812 19.8224 9.80801 16.7678 9.80801C13.5318 9.80801 10.9939 11.9812 10.9939 14.6515C10.9939 17.3218 13.5353 19.495 16.7678 19.495C17.4416 19.495 18.1258 19.3202 18.8135 19.1556L20.6777 20.16L20.161 18.4941C21.5294 17.4863 22.5418 16.1529 22.5418 14.6515ZM14.8932 13.8117C14.5546 13.8117 14.2195 13.4792 14.2195 13.1398C14.2195 12.8073 14.5581 12.4783 14.8932 12.4783C15.4099 12.4783 15.745 12.8108 15.745 13.1398C15.745 13.4826 15.4064 13.8117 14.8932 13.8117ZM18.632 13.8117C18.2934 13.8117 17.9582 13.4792 17.9582 13.1398C17.9582 12.8073 18.2969 12.4783 18.632 12.4783C19.1382 12.4783 19.4838 12.8108 19.4838 13.1398C19.4873 13.4826 19.1382 13.8117 18.632 13.8117Z" fill="white"/>
</svg>
