<svg width="25" height="24" viewBox="0 0 25 24" fill="none" xmlns="http://www.w3.org/2000/svg">
<path d="M12.4619 4.86429C8.56727 4.86429 5.4012 8.03036 5.39584 11.925C5.39584 13.2589 5.77084 14.5607 6.47799 15.6804L6.64406 15.9482L5.93156 18.5518L8.60477 17.85L8.86191 18.0054C9.94406 18.6482 11.1869 18.9911 12.4566 18.9911H12.4619C16.3512 18.9911 19.603 15.825 19.603 11.9304C19.603 10.0446 18.7887 8.27143 17.4548 6.9375C16.1155 5.59821 14.3476 4.86429 12.4619 4.86429ZM16.6137 14.9571C16.4369 15.4554 15.5905 15.9054 15.1833 15.9643C14.5083 16.0661 13.9833 16.0125 12.6387 15.4339C10.5119 14.5125 9.11906 12.3696 9.01191 12.2304C8.90477 12.0911 8.14406 11.0786 8.14406 10.0339C8.14406 8.98929 8.69049 8.475 8.8887 8.26071C9.08156 8.04643 9.31191 7.99286 9.45656 7.99286C9.59584 7.99286 9.74049 7.99286 9.8637 7.99821C9.99227 8.00357 10.1691 7.95 10.3405 8.3625C10.5173 8.78571 10.9405 9.83036 10.9941 9.9375C11.0476 10.0446 11.0851 10.1679 11.0101 10.3071C10.603 11.1214 10.1691 11.0893 10.3887 11.4643C11.2083 12.8732 12.028 13.3607 13.2762 13.9875C13.4905 14.0946 13.6137 14.0786 13.7369 13.9339C13.8601 13.7946 14.2673 13.3125 14.4066 13.1036C14.5458 12.8893 14.6905 12.9268 14.8833 12.9964C15.0762 13.0661 16.1208 13.5804 16.3351 13.6875C16.5494 13.7946 16.6887 13.8482 16.7423 13.9339C16.7905 14.0357 16.7905 14.4643 16.6137 14.9571ZM21.8905 0H3.03334C1.6137 0 0.461914 1.15179 0.461914 2.57143V21.4286C0.461914 22.8482 1.6137 24 3.03334 24H21.8905C23.3101 24 24.4619 22.8482 24.4619 21.4286V2.57143C24.4619 1.15179 23.3101 0 21.8905 0ZM12.4566 20.4214C11.0316 20.4214 9.63334 20.0625 8.39584 19.3875L3.89049 20.5714L5.09584 16.1679C4.3512 14.8821 3.96013 13.4196 3.96013 11.9196C3.96549 7.2375 7.77441 3.42857 12.4566 3.42857C14.728 3.42857 16.8601 4.3125 18.4673 5.91964C20.0691 7.52679 21.0333 9.65893 21.0333 11.9304C21.0333 16.6125 17.1387 20.4214 12.4566 20.4214Z" fill="#10B118"/>
</svg>
